<mxfile host="www.draw.io" modified="2020-01-24T18:27:40.522Z" agent="Mozilla/5.0 (Windows NT 6.1; Win64; x64) AppleWebKit/537.36 (KHTML, like Gecko) Chrome/79.0.3945.131 Safari/537.36" etag="PW4s7Vj5wMaNVQVZtKdk" version="12.5.6" type="github" pages="8">
  <diagram id="E1fZIa5tzn7upZi3XGp3" name="Overview">
    <mxGraphModel dx="2329" dy="960" grid="1" gridSize="10" guides="1" tooltips="1" connect="1" arrows="1" fold="1" page="1" pageScale="1" pageWidth="827" pageHeight="1169" math="0" shadow="0">
      <root>
        <mxCell id="0"/>
        <mxCell id="1" parent="0"/>
        <mxCell id="cF5c5wZSAEpTHRjXzD4C-1" value="Arcadia (aka S1)" style="fontColor=#0066CC;verticalAlign=top;verticalLabelPosition=bottom;labelPosition=center;align=center;html=1;outlineConnect=0;fillColor=#CCCCCC;strokeColor=#6881B3;gradientColor=none;gradientDirection=north;strokeWidth=2;shape=mxgraph.networks.rack;" vertex="1" parent="1">
          <mxGeometry x="150" y="270" width="50" height="100" as="geometry"/>
        </mxCell>
        <mxCell id="cF5c5wZSAEpTHRjXzD4C-2" value="Eden (aka S2)" style="fontColor=#0066CC;verticalAlign=top;verticalLabelPosition=bottom;labelPosition=center;align=center;html=1;outlineConnect=0;fillColor=#CCCCCC;strokeColor=#6881B3;gradientColor=none;gradientDirection=north;strokeWidth=2;shape=mxgraph.networks.rack;" vertex="1" parent="1">
          <mxGeometry x="150" y="420" width="50" height="100" as="geometry"/>
        </mxCell>
        <mxCell id="cF5c5wZSAEpTHRjXzD4C-3" value="Valhalla (aka S3)" style="fontColor=#0066CC;verticalAlign=top;verticalLabelPosition=bottom;labelPosition=center;align=center;html=1;outlineConnect=0;fillColor=#CCCCCC;strokeColor=#6881B3;gradientColor=none;gradientDirection=north;strokeWidth=2;shape=mxgraph.networks.rack;" vertex="1" parent="1">
          <mxGeometry x="150" y="580" width="50" height="100" as="geometry"/>
        </mxCell>
        <mxCell id="cF5c5wZSAEpTHRjXzD4C-4" value="Item Transaction API" style="fontColor=#0066CC;verticalAlign=top;verticalLabelPosition=bottom;labelPosition=center;align=center;html=1;outlineConnect=0;fillColor=#CCCCCC;strokeColor=#6881B3;gradientColor=none;gradientDirection=north;strokeWidth=2;shape=mxgraph.networks.rack;" vertex="1" parent="1">
          <mxGeometry x="840" y="270" width="50" height="100" as="geometry"/>
        </mxCell>
        <mxCell id="cF5c5wZSAEpTHRjXzD4C-5" value="Minestack" style="fontColor=#0066CC;verticalAlign=top;verticalLabelPosition=bottom;labelPosition=center;align=center;html=1;outlineConnect=0;fillColor=#CCCCCC;strokeColor=#6881B3;gradientColor=none;gradientDirection=north;strokeWidth=2;shape=mxgraph.networks.storage;" vertex="1" parent="1">
          <mxGeometry x="1080" y="270" width="100" height="100" as="geometry"/>
        </mxCell>
        <mxCell id="cF5c5wZSAEpTHRjXzD4C-6" value="Transaction History" style="fontColor=#0066CC;verticalAlign=top;verticalLabelPosition=bottom;labelPosition=center;align=center;html=1;outlineConnect=0;fillColor=#CCCCCC;strokeColor=#6881B3;gradientColor=none;gradientDirection=north;strokeWidth=2;shape=mxgraph.networks.storage;" vertex="1" parent="1">
          <mxGeometry x="1080" y="420" width="100" height="100" as="geometry"/>
        </mxCell>
        <mxCell id="cF5c5wZSAEpTHRjXzD4C-29" value="Quest Data" style="fontColor=#0066CC;verticalAlign=top;verticalLabelPosition=bottom;labelPosition=center;align=center;html=1;outlineConnect=0;fillColor=#CCCCCC;strokeColor=#6881B3;gradientColor=none;gradientDirection=north;strokeWidth=2;shape=mxgraph.networks.storage;" vertex="1" parent="1">
          <mxGeometry x="1080" y="760" width="100" height="100" as="geometry"/>
        </mxCell>
        <mxCell id="cF5c5wZSAEpTHRjXzD4C-9" value="" style="endArrow=none;html=1;exitX=1;exitY=0.5;exitDx=0;exitDy=0;entryX=0;entryY=0.5;entryDx=0;entryDy=0;entryPerimeter=0;exitPerimeter=0;" edge="1" parent="1" source="cF5c5wZSAEpTHRjXzD4C-33" target="cF5c5wZSAEpTHRjXzD4C-18">
          <mxGeometry width="50" height="50" relative="1" as="geometry">
            <mxPoint x="540" y="469.2857142857142" as="sourcePoint"/>
            <mxPoint x="370" y="470" as="targetPoint"/>
          </mxGeometry>
        </mxCell>
        <mxCell id="cF5c5wZSAEpTHRjXzD4C-10" value="" style="endArrow=none;html=1;exitX=1;exitY=0.5;exitDx=0;exitDy=0;entryX=0;entryY=0.5;entryDx=0;entryDy=0;entryPerimeter=0;exitPerimeter=0;" edge="1" parent="1" source="cF5c5wZSAEpTHRjXzD4C-33" target="cF5c5wZSAEpTHRjXzD4C-4">
          <mxGeometry width="50" height="50" relative="1" as="geometry">
            <mxPoint x="540" y="469.2857142857142" as="sourcePoint"/>
            <mxPoint x="300" y="310" as="targetPoint"/>
          </mxGeometry>
        </mxCell>
        <mxCell id="cF5c5wZSAEpTHRjXzD4C-11" value="" style="fontColor=#0066CC;verticalAlign=top;verticalLabelPosition=bottom;labelPosition=center;align=center;html=1;outlineConnect=0;fillColor=#CCCCCC;strokeColor=#6881B3;gradientColor=none;gradientDirection=north;strokeWidth=2;shape=mxgraph.networks.laptop;" vertex="1" parent="1">
          <mxGeometry x="-100" y="292.5" width="100" height="55" as="geometry"/>
        </mxCell>
        <mxCell id="cF5c5wZSAEpTHRjXzD4C-12" value="" style="fontColor=#0066CC;verticalAlign=top;verticalLabelPosition=bottom;labelPosition=center;align=center;html=1;outlineConnect=0;fillColor=#CCCCCC;strokeColor=#6881B3;gradientColor=none;gradientDirection=north;strokeWidth=2;shape=mxgraph.networks.monitor;" vertex="1" parent="1">
          <mxGeometry x="-90" y="437.5" width="80" height="65" as="geometry"/>
        </mxCell>
        <mxCell id="cF5c5wZSAEpTHRjXzD4C-13" value="" style="fontColor=#0066CC;verticalAlign=top;verticalLabelPosition=bottom;labelPosition=center;align=center;html=1;outlineConnect=0;fillColor=#CCCCCC;strokeColor=#6881B3;gradientColor=none;gradientDirection=north;strokeWidth=2;shape=mxgraph.networks.monitor;" vertex="1" parent="1">
          <mxGeometry x="-90" y="597.5" width="80" height="65" as="geometry"/>
        </mxCell>
        <mxCell id="cF5c5wZSAEpTHRjXzD4C-14" value="join" style="html=1;verticalAlign=bottom;endArrow=block;entryX=0;entryY=0.5;entryDx=0;entryDy=0;entryPerimeter=0;" edge="1" parent="1" target="cF5c5wZSAEpTHRjXzD4C-1">
          <mxGeometry width="80" relative="1" as="geometry">
            <mxPoint y="320" as="sourcePoint"/>
            <mxPoint x="80" y="320" as="targetPoint"/>
          </mxGeometry>
        </mxCell>
        <mxCell id="cF5c5wZSAEpTHRjXzD4C-15" value="join" style="html=1;verticalAlign=bottom;endArrow=block;entryX=0;entryY=0.5;entryDx=0;entryDy=0;entryPerimeter=0;" edge="1" parent="1" target="cF5c5wZSAEpTHRjXzD4C-2">
          <mxGeometry width="80" relative="1" as="geometry">
            <mxPoint y="469.5" as="sourcePoint"/>
            <mxPoint x="80" y="469.5" as="targetPoint"/>
          </mxGeometry>
        </mxCell>
        <mxCell id="cF5c5wZSAEpTHRjXzD4C-16" value="join" style="html=1;verticalAlign=bottom;endArrow=block;entryX=0;entryY=0.5;entryDx=0;entryDy=0;entryPerimeter=0;" edge="1" parent="1" target="cF5c5wZSAEpTHRjXzD4C-3">
          <mxGeometry width="80" relative="1" as="geometry">
            <mxPoint y="629.5" as="sourcePoint"/>
            <mxPoint x="80" y="629.5" as="targetPoint"/>
          </mxGeometry>
        </mxCell>
        <mxCell id="cF5c5wZSAEpTHRjXzD4C-17" value="Economy System&lt;br&gt;(external)" style="fontColor=#0066CC;verticalAlign=top;verticalLabelPosition=bottom;labelPosition=center;align=center;html=1;outlineConnect=0;fillColor=#CCCCCC;strokeColor=#6881B3;gradientColor=none;gradientDirection=north;strokeWidth=2;shape=mxgraph.networks.storage;" vertex="1" parent="1">
          <mxGeometry x="1080" y="580" width="100" height="100" as="geometry"/>
        </mxCell>
        <mxCell id="cF5c5wZSAEpTHRjXzD4C-18" value="Economy API&lt;br&gt;(interim)" style="fontColor=#0066CC;verticalAlign=top;verticalLabelPosition=bottom;labelPosition=center;align=center;html=1;outlineConnect=0;fillColor=#CCCCCC;strokeColor=#6881B3;gradientColor=none;gradientDirection=north;strokeWidth=2;shape=mxgraph.networks.rack;" vertex="1" parent="1">
          <mxGeometry x="840" y="420" width="50" height="100" as="geometry"/>
        </mxCell>
        <mxCell id="cF5c5wZSAEpTHRjXzD4C-19" value="commit" style="html=1;verticalAlign=bottom;endArrow=block;entryX=0;entryY=0.5;entryDx=0;entryDy=0;entryPerimeter=0;exitX=1;exitY=0.5;exitDx=0;exitDy=0;exitPerimeter=0;" edge="1" parent="1" source="cF5c5wZSAEpTHRjXzD4C-18" target="cF5c5wZSAEpTHRjXzD4C-17">
          <mxGeometry x="0.0181" y="11" width="80" relative="1" as="geometry">
            <mxPoint x="890" y="569.5" as="sourcePoint"/>
            <mxPoint x="970" y="569.5" as="targetPoint"/>
            <mxPoint x="-1" as="offset"/>
          </mxGeometry>
        </mxCell>
        <mxCell id="cF5c5wZSAEpTHRjXzD4C-20" value="commit" style="html=1;verticalAlign=bottom;endArrow=block;entryX=0;entryY=0.5;entryDx=0;entryDy=0;entryPerimeter=0;exitX=1;exitY=0.5;exitDx=0;exitDy=0;exitPerimeter=0;" edge="1" parent="1" source="cF5c5wZSAEpTHRjXzD4C-18" target="cF5c5wZSAEpTHRjXzD4C-6">
          <mxGeometry x="0.0022" y="11" width="80" relative="1" as="geometry">
            <mxPoint x="940" y="530" as="sourcePoint"/>
            <mxPoint x="1020" y="530" as="targetPoint"/>
            <mxPoint as="offset"/>
          </mxGeometry>
        </mxCell>
        <mxCell id="cF5c5wZSAEpTHRjXzD4C-22" value="commit" style="html=1;verticalAlign=bottom;endArrow=block;entryX=0;entryY=0.5;entryDx=0;entryDy=0;entryPerimeter=0;exitX=1;exitY=0.5;exitDx=0;exitDy=0;exitPerimeter=0;" edge="1" parent="1" source="cF5c5wZSAEpTHRjXzD4C-4" target="cF5c5wZSAEpTHRjXzD4C-5">
          <mxGeometry x="-0.0226" y="7" width="80" relative="1" as="geometry">
            <mxPoint x="890" y="410" as="sourcePoint"/>
            <mxPoint x="970" y="410" as="targetPoint"/>
            <mxPoint as="offset"/>
          </mxGeometry>
        </mxCell>
        <mxCell id="cF5c5wZSAEpTHRjXzD4C-25" value="commit" style="html=1;verticalAlign=bottom;endArrow=block;exitX=1;exitY=0.5;exitDx=0;exitDy=0;exitPerimeter=0;entryX=0;entryY=0.5;entryDx=0;entryDy=0;entryPerimeter=0;" edge="1" parent="1" source="cF5c5wZSAEpTHRjXzD4C-4" target="cF5c5wZSAEpTHRjXzD4C-6">
          <mxGeometry x="0.1247" y="9" width="80" relative="1" as="geometry">
            <mxPoint x="920" y="397" as="sourcePoint"/>
            <mxPoint x="1000" y="397" as="targetPoint"/>
            <mxPoint as="offset"/>
          </mxGeometry>
        </mxCell>
        <mxCell id="cF5c5wZSAEpTHRjXzD4C-26" value="" style="endArrow=none;html=1;exitX=1;exitY=0.5;exitDx=0;exitDy=0;exitPerimeter=0;entryX=0;entryY=0.5;entryDx=0;entryDy=0;entryPerimeter=0;" edge="1" parent="1" source="cF5c5wZSAEpTHRjXzD4C-1" target="cF5c5wZSAEpTHRjXzD4C-33">
          <mxGeometry width="50" height="50" relative="1" as="geometry">
            <mxPoint x="210" y="330" as="sourcePoint"/>
            <mxPoint x="480" y="469.2857142857142" as="targetPoint"/>
          </mxGeometry>
        </mxCell>
        <mxCell id="cF5c5wZSAEpTHRjXzD4C-27" value="" style="endArrow=none;html=1;exitX=1;exitY=0.5;exitDx=0;exitDy=0;exitPerimeter=0;entryX=0;entryY=0.5;entryDx=0;entryDy=0;entryPerimeter=0;" edge="1" parent="1" source="cF5c5wZSAEpTHRjXzD4C-2" target="cF5c5wZSAEpTHRjXzD4C-33">
          <mxGeometry width="50" height="50" relative="1" as="geometry">
            <mxPoint x="210" y="480" as="sourcePoint"/>
            <mxPoint x="480" y="469.2857142857142" as="targetPoint"/>
          </mxGeometry>
        </mxCell>
        <mxCell id="cF5c5wZSAEpTHRjXzD4C-28" value="" style="endArrow=none;html=1;exitX=1;exitY=0.5;exitDx=0;exitDy=0;exitPerimeter=0;entryX=0;entryY=0.5;entryDx=0;entryDy=0;entryPerimeter=0;" edge="1" parent="1" source="cF5c5wZSAEpTHRjXzD4C-3" target="cF5c5wZSAEpTHRjXzD4C-33">
          <mxGeometry width="50" height="50" relative="1" as="geometry">
            <mxPoint x="210" y="640" as="sourcePoint"/>
            <mxPoint x="480" y="469.2857142857142" as="targetPoint"/>
          </mxGeometry>
        </mxCell>
        <mxCell id="cF5c5wZSAEpTHRjXzD4C-31" value="Quest API&lt;br&gt;(interim)" style="fontColor=#0066CC;verticalAlign=top;verticalLabelPosition=bottom;labelPosition=center;align=center;html=1;outlineConnect=0;fillColor=#CCCCCC;strokeColor=#6881B3;gradientColor=none;gradientDirection=north;strokeWidth=2;shape=mxgraph.networks.rack;" vertex="1" parent="1">
          <mxGeometry x="840" y="580" width="50" height="100" as="geometry"/>
        </mxCell>
        <mxCell id="cF5c5wZSAEpTHRjXzD4C-33" value="SeichiAssist" style="fontColor=#0066CC;verticalAlign=top;verticalLabelPosition=bottom;labelPosition=center;align=center;html=1;outlineConnect=0;fillColor=#CCCCCC;strokeColor=#6881B3;gradientColor=none;gradientDirection=north;strokeWidth=2;shape=mxgraph.networks.mainframe;" vertex="1" parent="1">
          <mxGeometry x="480" y="420" width="80" height="100" as="geometry"/>
        </mxCell>
        <mxCell id="cF5c5wZSAEpTHRjXzD4C-34" value="" style="endArrow=none;html=1;exitX=1;exitY=0.5;exitDx=0;exitDy=0;exitPerimeter=0;entryX=0;entryY=0.5;entryDx=0;entryDy=0;entryPerimeter=0;" edge="1" parent="1" source="cF5c5wZSAEpTHRjXzD4C-33" target="cF5c5wZSAEpTHRjXzD4C-31">
          <mxGeometry width="50" height="50" relative="1" as="geometry">
            <mxPoint x="660" y="597.5" as="sourcePoint"/>
            <mxPoint x="720" y="537.5" as="targetPoint"/>
          </mxGeometry>
        </mxCell>
        <mxCell id="cF5c5wZSAEpTHRjXzD4C-37" value="result" style="html=1;verticalAlign=bottom;endArrow=block;entryX=0;entryY=0.5;entryDx=0;entryDy=0;entryPerimeter=0;" edge="1" parent="1" target="cF5c5wZSAEpTHRjXzD4C-29">
          <mxGeometry x="0.1723" y="13" width="80" relative="1" as="geometry">
            <mxPoint x="890" y="640" as="sourcePoint"/>
            <mxPoint x="970" y="640" as="targetPoint"/>
            <mxPoint as="offset"/>
          </mxGeometry>
        </mxCell>
      </root>
    </mxGraphModel>
  </diagram>
  <diagram id="abUCU68c75y5wKKTvu4t" name="TRACKER-7315">
    <mxGraphModel dx="1277" dy="816" grid="1" gridSize="10" guides="0" tooltips="1" connect="1" arrows="1" fold="1" page="1" pageScale="1" pageWidth="827" pageHeight="1169" math="0" shadow="0">
      <root>
        <mxCell id="wQiHHXdvYLnzJMGTRmWY-0"/>
        <mxCell id="wQiHHXdvYLnzJMGTRmWY-1" parent="wQiHHXdvYLnzJMGTRmWY-0"/>
        <mxCell id="5ryiHg2MH_s-ZCPv3rZF-0" value="Arcadia (aka S1)" style="fontColor=#0066CC;verticalAlign=top;verticalLabelPosition=bottom;labelPosition=center;align=center;html=1;outlineConnect=0;fillColor=#CCCCCC;strokeColor=#6881B3;gradientColor=none;gradientDirection=north;strokeWidth=2;shape=mxgraph.networks.rack;" vertex="1" parent="wQiHHXdvYLnzJMGTRmWY-1">
          <mxGeometry x="30" y="270" width="50" height="100" as="geometry"/>
        </mxCell>
        <mxCell id="5ryiHg2MH_s-ZCPv3rZF-1" value="Eden (aka S2)" style="fontColor=#0066CC;verticalAlign=top;verticalLabelPosition=bottom;labelPosition=center;align=center;html=1;outlineConnect=0;fillColor=#CCCCCC;strokeColor=#6881B3;gradientColor=none;gradientDirection=north;strokeWidth=2;shape=mxgraph.networks.rack;" vertex="1" parent="wQiHHXdvYLnzJMGTRmWY-1">
          <mxGeometry x="30" y="420" width="50" height="100" as="geometry"/>
        </mxCell>
        <mxCell id="5ryiHg2MH_s-ZCPv3rZF-2" value="Valhalla (aka S3)" style="fontColor=#0066CC;verticalAlign=top;verticalLabelPosition=bottom;labelPosition=center;align=center;html=1;outlineConnect=0;fillColor=#CCCCCC;strokeColor=#6881B3;gradientColor=none;gradientDirection=north;strokeWidth=2;shape=mxgraph.networks.rack;" vertex="1" parent="wQiHHXdvYLnzJMGTRmWY-1">
          <mxGeometry x="30" y="580" width="50" height="100" as="geometry"/>
        </mxCell>
        <mxCell id="5ryiHg2MH_s-ZCPv3rZF-3" value="Item Transaction API" style="fontColor=#0066CC;verticalAlign=top;verticalLabelPosition=bottom;labelPosition=center;align=center;html=1;outlineConnect=0;fillColor=#CCCCCC;strokeColor=#6881B3;gradientColor=none;gradientDirection=north;strokeWidth=2;shape=mxgraph.networks.rack;" vertex="1" parent="wQiHHXdvYLnzJMGTRmWY-1">
          <mxGeometry x="720" y="420" width="50" height="100" as="geometry"/>
        </mxCell>
        <mxCell id="5ryiHg2MH_s-ZCPv3rZF-4" value="Minestack" style="fontColor=#0066CC;verticalAlign=top;verticalLabelPosition=bottom;labelPosition=center;align=center;html=1;outlineConnect=0;fillColor=#CCCCCC;strokeColor=#6881B3;gradientColor=none;gradientDirection=north;strokeWidth=2;shape=mxgraph.networks.storage;" vertex="1" parent="wQiHHXdvYLnzJMGTRmWY-1">
          <mxGeometry x="960" y="270" width="100" height="100" as="geometry"/>
        </mxCell>
        <mxCell id="5ryiHg2MH_s-ZCPv3rZF-5" value="Transaction History" style="fontColor=#0066CC;verticalAlign=top;verticalLabelPosition=bottom;labelPosition=center;align=center;html=1;outlineConnect=0;fillColor=#CCCCCC;strokeColor=#6881B3;gradientColor=none;gradientDirection=north;strokeWidth=2;shape=mxgraph.networks.storage;" vertex="1" parent="wQiHHXdvYLnzJMGTRmWY-1">
          <mxGeometry x="960" y="580" width="100" height="100" as="geometry"/>
        </mxCell>
        <mxCell id="5ryiHg2MH_s-ZCPv3rZF-7" value="transport(from -&amp;gt; to)" style="html=1;verticalAlign=bottom;endArrow=block;entryX=0;entryY=0.5;entryDx=0;entryDy=0;entryPerimeter=0;exitX=1;exitY=0.5;exitDx=0;exitDy=0;exitPerimeter=0;rounded=0;" edge="1" parent="wQiHHXdvYLnzJMGTRmWY-1" source="5ryiHg2MH_s-ZCPv3rZF-3" target="5ryiHg2MH_s-ZCPv3rZF-4">
          <mxGeometry x="-0.2662" y="32" width="80" relative="1" as="geometry">
            <mxPoint x="770" y="410" as="sourcePoint"/>
            <mxPoint x="850" y="410" as="targetPoint"/>
            <mxPoint as="offset"/>
            <Array as="points"/>
          </mxGeometry>
        </mxCell>
        <mxCell id="5ryiHg2MH_s-ZCPv3rZF-8" value="kind=market,from=seller,&lt;br&gt;to=bidder,items=items" style="html=1;verticalAlign=bottom;endArrow=block;exitX=1;exitY=0.5;exitDx=0;exitDy=0;exitPerimeter=0;entryX=0;entryY=0.5;entryDx=0;entryDy=0;entryPerimeter=0;" edge="1" parent="wQiHHXdvYLnzJMGTRmWY-1" source="5ryiHg2MH_s-ZCPv3rZF-3" target="5ryiHg2MH_s-ZCPv3rZF-5">
          <mxGeometry x="0.1247" y="9" width="80" relative="1" as="geometry">
            <mxPoint x="800" y="397" as="sourcePoint"/>
            <mxPoint x="880" y="397" as="targetPoint"/>
            <mxPoint as="offset"/>
          </mxGeometry>
        </mxCell>
        <mxCell id="5ryiHg2MH_s-ZCPv3rZF-9" value="" style="endArrow=none;html=1;exitX=1;exitY=0.5;exitDx=0;exitDy=0;exitPerimeter=0;entryX=0;entryY=0.5;entryDx=0;entryDy=0;entryPerimeter=0;" edge="1" parent="wQiHHXdvYLnzJMGTRmWY-1" source="5ryiHg2MH_s-ZCPv3rZF-0" target="5ryiHg2MH_s-ZCPv3rZF-12">
          <mxGeometry width="50" height="50" relative="1" as="geometry">
            <mxPoint x="90" y="330" as="sourcePoint"/>
            <mxPoint x="360" y="469.2857142857142" as="targetPoint"/>
          </mxGeometry>
        </mxCell>
        <mxCell id="5ryiHg2MH_s-ZCPv3rZF-10" value="" style="endArrow=none;html=1;exitX=1;exitY=0.5;exitDx=0;exitDy=0;exitPerimeter=0;entryX=0;entryY=0.5;entryDx=0;entryDy=0;entryPerimeter=0;" edge="1" parent="wQiHHXdvYLnzJMGTRmWY-1" source="5ryiHg2MH_s-ZCPv3rZF-1" target="5ryiHg2MH_s-ZCPv3rZF-12">
          <mxGeometry width="50" height="50" relative="1" as="geometry">
            <mxPoint x="90" y="480" as="sourcePoint"/>
            <mxPoint x="360" y="469.2857142857142" as="targetPoint"/>
          </mxGeometry>
        </mxCell>
        <mxCell id="5ryiHg2MH_s-ZCPv3rZF-11" value="" style="endArrow=none;html=1;exitX=1;exitY=0.5;exitDx=0;exitDy=0;exitPerimeter=0;entryX=0;entryY=0.5;entryDx=0;entryDy=0;entryPerimeter=0;" edge="1" parent="wQiHHXdvYLnzJMGTRmWY-1" source="5ryiHg2MH_s-ZCPv3rZF-2" target="5ryiHg2MH_s-ZCPv3rZF-12">
          <mxGeometry width="50" height="50" relative="1" as="geometry">
            <mxPoint x="90" y="640" as="sourcePoint"/>
            <mxPoint x="360" y="469.2857142857142" as="targetPoint"/>
          </mxGeometry>
        </mxCell>
        <mxCell id="5ryiHg2MH_s-ZCPv3rZF-12" value="SeichiAssist" style="fontColor=#0066CC;verticalAlign=top;verticalLabelPosition=bottom;labelPosition=center;align=center;html=1;outlineConnect=0;fillColor=#CCCCCC;strokeColor=#6881B3;gradientColor=none;gradientDirection=north;strokeWidth=2;shape=mxgraph.networks.mainframe;" vertex="1" parent="wQiHHXdvYLnzJMGTRmWY-1">
          <mxGeometry x="360" y="420" width="80" height="100" as="geometry"/>
        </mxCell>
        <mxCell id="LqNCUcHVI_thpFKpSEDr-1" value="queue bid" style="html=1;verticalAlign=bottom;endArrow=block;entryX=0;entryY=0.3;entryDx=0;entryDy=0;entryPerimeter=0;" edge="1" parent="wQiHHXdvYLnzJMGTRmWY-1" target="5ryiHg2MH_s-ZCPv3rZF-3">
          <mxGeometry width="80" relative="1" as="geometry">
            <mxPoint x="440" y="450" as="sourcePoint"/>
            <mxPoint x="520" y="450" as="targetPoint"/>
          </mxGeometry>
        </mxCell>
        <mxCell id="LqNCUcHVI_thpFKpSEDr-2" value="result (Success | Failure)" style="html=1;verticalAlign=bottom;endArrow=block;entryX=1;entryY=0.8;entryDx=0;entryDy=0;entryPerimeter=0;exitX=0;exitY=0.8;exitDx=0;exitDy=0;exitPerimeter=0;" edge="1" parent="wQiHHXdvYLnzJMGTRmWY-1" source="5ryiHg2MH_s-ZCPv3rZF-3" target="5ryiHg2MH_s-ZCPv3rZF-12">
          <mxGeometry width="80" relative="1" as="geometry">
            <mxPoint x="700" y="500" as="sourcePoint"/>
            <mxPoint x="640" y="500" as="targetPoint"/>
          </mxGeometry>
        </mxCell>
      </root>
    </mxGraphModel>
  </diagram>
  <diagram id="4pzMdQMk-_MHeESGRC7U" name="TRACKER-7342">
    <mxGraphModel dx="1277" dy="816" grid="1" gridSize="10" guides="1" tooltips="1" connect="1" arrows="1" fold="1" page="1" pageScale="1" pageWidth="827" pageHeight="1169" math="0" shadow="0">
      <root>
        <mxCell id="uQjz86yNZaLKDj_SnwFY-0"/>
        <mxCell id="uQjz86yNZaLKDj_SnwFY-1" parent="uQjz86yNZaLKDj_SnwFY-0"/>
        <mxCell id="uQjz86yNZaLKDj_SnwFY-2" value="TL;DR:納品要素の追加" style="text;html=1;align=center;verticalAlign=middle;resizable=0;points=[];autosize=1;" vertex="1" parent="uQjz86yNZaLKDj_SnwFY-1">
          <mxGeometry x="105" y="190" width="140" height="20" as="geometry"/>
        </mxCell>
        <mxCell id="fJNG_cs6KRgdvyxUlbZ4-0" value="Arcadia (aka S1)" style="fontColor=#0066CC;verticalAlign=top;verticalLabelPosition=bottom;labelPosition=center;align=center;html=1;outlineConnect=0;fillColor=#CCCCCC;strokeColor=#6881B3;gradientColor=none;gradientDirection=north;strokeWidth=2;shape=mxgraph.networks.rack;" vertex="1" parent="uQjz86yNZaLKDj_SnwFY-1">
          <mxGeometry x="150" y="270" width="50" height="100" as="geometry"/>
        </mxCell>
        <mxCell id="fJNG_cs6KRgdvyxUlbZ4-1" value="Eden (aka S2)" style="fontColor=#0066CC;verticalAlign=top;verticalLabelPosition=bottom;labelPosition=center;align=center;html=1;outlineConnect=0;fillColor=#CCCCCC;strokeColor=#6881B3;gradientColor=none;gradientDirection=north;strokeWidth=2;shape=mxgraph.networks.rack;" vertex="1" parent="uQjz86yNZaLKDj_SnwFY-1">
          <mxGeometry x="150" y="420" width="50" height="100" as="geometry"/>
        </mxCell>
        <mxCell id="fJNG_cs6KRgdvyxUlbZ4-2" value="Valhalla (aka S3)" style="fontColor=#0066CC;verticalAlign=top;verticalLabelPosition=bottom;labelPosition=center;align=center;html=1;outlineConnect=0;fillColor=#CCCCCC;strokeColor=#6881B3;gradientColor=none;gradientDirection=north;strokeWidth=2;shape=mxgraph.networks.rack;" vertex="1" parent="uQjz86yNZaLKDj_SnwFY-1">
          <mxGeometry x="150" y="580" width="50" height="100" as="geometry"/>
        </mxCell>
        <mxCell id="fJNG_cs6KRgdvyxUlbZ4-3" value="Quest Data" style="fontColor=#0066CC;verticalAlign=top;verticalLabelPosition=bottom;labelPosition=center;align=center;html=1;outlineConnect=0;fillColor=#CCCCCC;strokeColor=#6881B3;gradientColor=none;gradientDirection=north;strokeWidth=2;shape=mxgraph.networks.storage;" vertex="1" parent="uQjz86yNZaLKDj_SnwFY-1">
          <mxGeometry x="1090" y="534" width="100" height="100" as="geometry"/>
        </mxCell>
        <mxCell id="fJNG_cs6KRgdvyxUlbZ4-4" value="" style="endArrow=none;html=1;exitX=1;exitY=0.5;exitDx=0;exitDy=0;exitPerimeter=0;entryX=0;entryY=0.5;entryDx=0;entryDy=0;entryPerimeter=0;" edge="1" parent="uQjz86yNZaLKDj_SnwFY-1" source="fJNG_cs6KRgdvyxUlbZ4-0" target="fJNG_cs6KRgdvyxUlbZ4-8">
          <mxGeometry width="50" height="50" relative="1" as="geometry">
            <mxPoint x="210" y="330" as="sourcePoint"/>
            <mxPoint x="480" y="469.2857142857142" as="targetPoint"/>
          </mxGeometry>
        </mxCell>
        <mxCell id="fJNG_cs6KRgdvyxUlbZ4-5" value="" style="endArrow=none;html=1;exitX=1;exitY=0.5;exitDx=0;exitDy=0;exitPerimeter=0;entryX=0;entryY=0.5;entryDx=0;entryDy=0;entryPerimeter=0;" edge="1" parent="uQjz86yNZaLKDj_SnwFY-1" source="fJNG_cs6KRgdvyxUlbZ4-1" target="fJNG_cs6KRgdvyxUlbZ4-8">
          <mxGeometry width="50" height="50" relative="1" as="geometry">
            <mxPoint x="210" y="480" as="sourcePoint"/>
            <mxPoint x="480" y="469.2857142857142" as="targetPoint"/>
          </mxGeometry>
        </mxCell>
        <mxCell id="fJNG_cs6KRgdvyxUlbZ4-6" value="" style="endArrow=none;html=1;exitX=1;exitY=0.5;exitDx=0;exitDy=0;exitPerimeter=0;entryX=0;entryY=0.5;entryDx=0;entryDy=0;entryPerimeter=0;" edge="1" parent="uQjz86yNZaLKDj_SnwFY-1" source="fJNG_cs6KRgdvyxUlbZ4-2" target="fJNG_cs6KRgdvyxUlbZ4-8">
          <mxGeometry width="50" height="50" relative="1" as="geometry">
            <mxPoint x="210" y="640" as="sourcePoint"/>
            <mxPoint x="480" y="469.2857142857142" as="targetPoint"/>
          </mxGeometry>
        </mxCell>
        <mxCell id="fJNG_cs6KRgdvyxUlbZ4-7" value="Quest API&lt;br&gt;(interim)" style="fontColor=#0066CC;verticalAlign=top;verticalLabelPosition=bottom;labelPosition=center;align=center;html=1;outlineConnect=0;fillColor=#CCCCCC;strokeColor=#6881B3;gradientColor=none;gradientDirection=north;strokeWidth=2;shape=mxgraph.networks.rack;" vertex="1" parent="uQjz86yNZaLKDj_SnwFY-1">
          <mxGeometry x="760" y="534" width="50" height="100" as="geometry"/>
        </mxCell>
        <mxCell id="fJNG_cs6KRgdvyxUlbZ4-8" value="SeichiAssist" style="fontColor=#0066CC;verticalAlign=top;verticalLabelPosition=bottom;labelPosition=center;align=center;html=1;outlineConnect=0;fillColor=#CCCCCC;strokeColor=#6881B3;gradientColor=none;gradientDirection=north;strokeWidth=2;shape=mxgraph.networks.mainframe;" vertex="1" parent="uQjz86yNZaLKDj_SnwFY-1">
          <mxGeometry x="480" y="420" width="80" height="100" as="geometry"/>
        </mxCell>
        <mxCell id="fJNG_cs6KRgdvyxUlbZ4-10" value="send final result;&amp;nbsp;" style="html=1;verticalAlign=bottom;endArrow=block;entryX=0;entryY=0.5;entryDx=0;entryDy=0;entryPerimeter=0;exitX=1;exitY=0.5;exitDx=0;exitDy=0;exitPerimeter=0;" edge="1" parent="uQjz86yNZaLKDj_SnwFY-1" target="fJNG_cs6KRgdvyxUlbZ4-3" source="fJNG_cs6KRgdvyxUlbZ4-7">
          <mxGeometry x="0.04" y="10" width="80" relative="1" as="geometry">
            <mxPoint x="890" y="640" as="sourcePoint"/>
            <mxPoint x="970" y="640" as="targetPoint"/>
            <mxPoint as="offset"/>
          </mxGeometry>
        </mxCell>
        <mxCell id="OsepqpN2dejKHw6BA5B0-0" value="Item Transaction API&lt;br&gt;(interim)" style="fontColor=#0066CC;verticalAlign=top;verticalLabelPosition=bottom;labelPosition=center;align=center;html=1;outlineConnect=0;fillColor=#CCCCCC;strokeColor=#6881B3;gradientColor=none;gradientDirection=north;strokeWidth=2;shape=mxgraph.networks.rack;" vertex="1" parent="uQjz86yNZaLKDj_SnwFY-1">
          <mxGeometry x="760" y="310" width="50" height="100" as="geometry"/>
        </mxCell>
        <mxCell id="OsepqpN2dejKHw6BA5B0-1" value="Transaction History" style="fontColor=#0066CC;verticalAlign=top;verticalLabelPosition=bottom;labelPosition=center;align=center;html=1;outlineConnect=0;fillColor=#CCCCCC;strokeColor=#6881B3;gradientColor=none;gradientDirection=north;strokeWidth=2;shape=mxgraph.networks.storage;" vertex="1" parent="uQjz86yNZaLKDj_SnwFY-1">
          <mxGeometry x="1090" y="360" width="100" height="100" as="geometry"/>
        </mxCell>
        <mxCell id="OsepqpN2dejKHw6BA5B0-2" value="kind=quest,to=deliverer,&lt;br&gt;from=system,items=awards" style="html=1;verticalAlign=bottom;endArrow=block;exitX=1;exitY=0.5;exitDx=0;exitDy=0;exitPerimeter=0;entryX=0;entryY=0.5;entryDx=0;entryDy=0;entryPerimeter=0;" edge="1" parent="uQjz86yNZaLKDj_SnwFY-1" source="OsepqpN2dejKHw6BA5B0-0" target="OsepqpN2dejKHw6BA5B0-1">
          <mxGeometry x="0.04" y="10" width="80" relative="1" as="geometry">
            <mxPoint x="840" y="290" as="sourcePoint"/>
            <mxPoint x="920" y="290" as="targetPoint"/>
            <mxPoint as="offset"/>
          </mxGeometry>
        </mxCell>
        <mxCell id="OsepqpN2dejKHw6BA5B0-3" value="Minestack" style="fontColor=#0066CC;verticalAlign=top;verticalLabelPosition=bottom;labelPosition=center;align=center;html=1;outlineConnect=0;fillColor=#CCCCCC;strokeColor=#6881B3;gradientColor=none;gradientDirection=north;strokeWidth=2;shape=mxgraph.networks.storage;" vertex="1" parent="uQjz86yNZaLKDj_SnwFY-1">
          <mxGeometry x="1090" y="210" width="100" height="100" as="geometry"/>
        </mxCell>
        <mxCell id="OsepqpN2dejKHw6BA5B0-4" value="increase No. of award" style="html=1;verticalAlign=bottom;endArrow=block;entryX=0;entryY=0.5;entryDx=0;entryDy=0;entryPerimeter=0;exitX=1;exitY=0.5;exitDx=0;exitDy=0;exitPerimeter=0;" edge="1" parent="uQjz86yNZaLKDj_SnwFY-1" source="OsepqpN2dejKHw6BA5B0-0" target="OsepqpN2dejKHw6BA5B0-3">
          <mxGeometry x="0.0633" y="-3" width="80" relative="1" as="geometry">
            <mxPoint x="860" y="230" as="sourcePoint"/>
            <mxPoint x="940" y="230" as="targetPoint"/>
            <mxPoint as="offset"/>
          </mxGeometry>
        </mxCell>
        <mxCell id="4OMb10ZC-VqHLJRyYRJg-0" value="delivery" style="html=1;verticalAlign=bottom;endArrow=block;entryX=0;entryY=0.5;entryDx=0;entryDy=0;entryPerimeter=0;exitX=1;exitY=0.5;exitDx=0;exitDy=0;exitPerimeter=0;curved=1;" edge="1" parent="uQjz86yNZaLKDj_SnwFY-1" source="fJNG_cs6KRgdvyxUlbZ4-8" target="fJNG_cs6KRgdvyxUlbZ4-7">
          <mxGeometry width="80" relative="1" as="geometry">
            <mxPoint x="600" y="490" as="sourcePoint"/>
            <mxPoint x="680" y="490" as="targetPoint"/>
            <Array as="points">
              <mxPoint x="670" y="490"/>
            </Array>
          </mxGeometry>
        </mxCell>
        <mxCell id="4OMb10ZC-VqHLJRyYRJg-1" value="send quest list" style="html=1;verticalAlign=bottom;endArrow=block;entryX=1;entryY=0.5;entryDx=0;entryDy=0;entryPerimeter=0;exitX=0;exitY=0.5;exitDx=0;exitDy=0;exitPerimeter=0;curved=1;" edge="1" parent="uQjz86yNZaLKDj_SnwFY-1" source="fJNG_cs6KRgdvyxUlbZ4-7" target="fJNG_cs6KRgdvyxUlbZ4-8">
          <mxGeometry x="0.0919" y="28" width="80" relative="1" as="geometry">
            <mxPoint x="670" y="570" as="sourcePoint"/>
            <mxPoint x="750" y="570" as="targetPoint"/>
            <Array as="points">
              <mxPoint x="640" y="540"/>
            </Array>
            <mxPoint x="-1" y="-1" as="offset"/>
          </mxGeometry>
        </mxCell>
        <mxCell id="4OMb10ZC-VqHLJRyYRJg-2" value="kind=quest,to=system,&lt;br&gt;from=deliverer,items=deliverables" style="html=1;verticalAlign=bottom;endArrow=block;entryX=0;entryY=0.5;entryDx=0;entryDy=0;entryPerimeter=0;curved=1;exitX=1;exitY=0.5;exitDx=0;exitDy=0;exitPerimeter=0;" edge="1" parent="uQjz86yNZaLKDj_SnwFY-1" source="OsepqpN2dejKHw6BA5B0-0" target="OsepqpN2dejKHw6BA5B0-1">
          <mxGeometry x="0.0507" y="-22" width="80" relative="1" as="geometry">
            <mxPoint x="820" y="370" as="sourcePoint"/>
            <mxPoint x="1100" y="420" as="targetPoint"/>
            <Array as="points">
              <mxPoint x="950" y="430"/>
            </Array>
            <mxPoint x="-14" y="-2" as="offset"/>
          </mxGeometry>
        </mxCell>
        <mxCell id="4OMb10ZC-VqHLJRyYRJg-3" value="decrease No. of deliverables" style="html=1;verticalAlign=bottom;endArrow=block;entryX=0;entryY=0.5;entryDx=0;entryDy=0;entryPerimeter=0;curved=1;exitX=1;exitY=0.5;exitDx=0;exitDy=0;exitPerimeter=0;" edge="1" parent="uQjz86yNZaLKDj_SnwFY-1" source="OsepqpN2dejKHw6BA5B0-0" target="OsepqpN2dejKHw6BA5B0-3">
          <mxGeometry x="-0.0766" y="-35" width="80" relative="1" as="geometry">
            <mxPoint x="880" y="250" as="sourcePoint"/>
            <mxPoint x="960" y="250" as="targetPoint"/>
            <Array as="points">
              <mxPoint x="920" y="240"/>
            </Array>
            <mxPoint as="offset"/>
          </mxGeometry>
        </mxCell>
        <mxCell id="4OMb10ZC-VqHLJRyYRJg-4" value="queue" style="html=1;verticalAlign=bottom;endArrow=block;entryX=0;entryY=0.5;entryDx=0;entryDy=0;entryPerimeter=0;curved=1;" edge="1" parent="uQjz86yNZaLKDj_SnwFY-1" target="OsepqpN2dejKHw6BA5B0-0">
          <mxGeometry width="80" relative="1" as="geometry">
            <mxPoint x="560" y="469.5" as="sourcePoint"/>
            <mxPoint x="640" y="469.5" as="targetPoint"/>
            <Array as="points">
              <mxPoint x="640" y="380"/>
            </Array>
          </mxGeometry>
        </mxCell>
        <mxCell id="4OMb10ZC-VqHLJRyYRJg-5" value="result (Success | Failure)" style="html=1;verticalAlign=bottom;endArrow=block;entryX=1;entryY=0.5;entryDx=0;entryDy=0;entryPerimeter=0;exitX=0;exitY=0.5;exitDx=0;exitDy=0;exitPerimeter=0;curved=1;" edge="1" parent="uQjz86yNZaLKDj_SnwFY-1" source="OsepqpN2dejKHw6BA5B0-0" target="fJNG_cs6KRgdvyxUlbZ4-8">
          <mxGeometry x="0.1365" y="10" width="80" relative="1" as="geometry">
            <mxPoint x="640" y="430" as="sourcePoint"/>
            <mxPoint x="720" y="430" as="targetPoint"/>
            <Array as="points">
              <mxPoint x="690" y="430"/>
            </Array>
            <mxPoint x="1" as="offset"/>
          </mxGeometry>
        </mxCell>
      </root>
    </mxGraphModel>
  </diagram>
  <diagram id="ThEqhTR1I8_4yiiv1OSz" name="TRACKER-7355">
    <mxGraphModel dx="1064" dy="680" grid="1" gridSize="5" guides="1" tooltips="1" connect="1" arrows="1" fold="1" page="1" pageScale="1" pageWidth="827" pageHeight="1169" math="0" shadow="0">
      <root>
        <mxCell id="vmclhji-gHsYDWOaVS8r-0"/>
        <mxCell id="vmclhji-gHsYDWOaVS8r-1" parent="vmclhji-gHsYDWOaVS8r-0"/>
        <mxCell id="PFkXwJeBTqDMAtfAi6ST-0" value="Arcadia (aka S1)" style="fontColor=#0066CC;verticalAlign=top;verticalLabelPosition=bottom;labelPosition=center;align=center;html=1;outlineConnect=0;fillColor=#CCCCCC;strokeColor=#6881B3;gradientColor=none;gradientDirection=north;strokeWidth=2;shape=mxgraph.networks.rack;" vertex="1" parent="vmclhji-gHsYDWOaVS8r-1">
          <mxGeometry x="150" y="270" width="50" height="100" as="geometry"/>
        </mxCell>
        <mxCell id="PFkXwJeBTqDMAtfAi6ST-1" value="Eden (aka S2)" style="fontColor=#0066CC;verticalAlign=top;verticalLabelPosition=bottom;labelPosition=center;align=center;html=1;outlineConnect=0;fillColor=#CCCCCC;strokeColor=#6881B3;gradientColor=none;gradientDirection=north;strokeWidth=2;shape=mxgraph.networks.rack;" vertex="1" parent="vmclhji-gHsYDWOaVS8r-1">
          <mxGeometry x="150" y="420" width="50" height="100" as="geometry"/>
        </mxCell>
        <mxCell id="PFkXwJeBTqDMAtfAi6ST-2" value="Valhalla (aka S3)" style="fontColor=#0066CC;verticalAlign=top;verticalLabelPosition=bottom;labelPosition=center;align=center;html=1;outlineConnect=0;fillColor=#CCCCCC;strokeColor=#6881B3;gradientColor=none;gradientDirection=north;strokeWidth=2;shape=mxgraph.networks.rack;" vertex="1" parent="vmclhji-gHsYDWOaVS8r-1">
          <mxGeometry x="150" y="580" width="50" height="100" as="geometry"/>
        </mxCell>
        <mxCell id="PFkXwJeBTqDMAtfAi6ST-3" value="Item Transaction API" style="fontColor=#0066CC;verticalAlign=top;verticalLabelPosition=bottom;labelPosition=center;align=center;html=1;outlineConnect=0;fillColor=#CCCCCC;strokeColor=#6881B3;gradientColor=none;gradientDirection=north;strokeWidth=2;shape=mxgraph.networks.rack;" vertex="1" parent="vmclhji-gHsYDWOaVS8r-1">
          <mxGeometry x="840" y="420" width="50" height="100" as="geometry"/>
        </mxCell>
        <mxCell id="PFkXwJeBTqDMAtfAi6ST-4" value="Minestack" style="fontColor=#0066CC;verticalAlign=top;verticalLabelPosition=bottom;labelPosition=center;align=center;html=1;outlineConnect=0;fillColor=#CCCCCC;strokeColor=#6881B3;gradientColor=none;gradientDirection=north;strokeWidth=2;shape=mxgraph.networks.storage;" vertex="1" parent="vmclhji-gHsYDWOaVS8r-1">
          <mxGeometry x="1080" y="270" width="100" height="100" as="geometry"/>
        </mxCell>
        <mxCell id="PFkXwJeBTqDMAtfAi6ST-5" value="Transaction History" style="fontColor=#0066CC;verticalAlign=top;verticalLabelPosition=bottom;labelPosition=center;align=center;html=1;outlineConnect=0;fillColor=#CCCCCC;strokeColor=#6881B3;gradientColor=none;gradientDirection=north;strokeWidth=2;shape=mxgraph.networks.storage;" vertex="1" parent="vmclhji-gHsYDWOaVS8r-1">
          <mxGeometry x="1070" y="450" width="100" height="100" as="geometry"/>
        </mxCell>
        <mxCell id="PFkXwJeBTqDMAtfAi6ST-7" value="commit" style="html=1;verticalAlign=bottom;endArrow=block;entryX=0;entryY=0.5;entryDx=0;entryDy=0;entryPerimeter=0;exitX=1;exitY=0.5;exitDx=0;exitDy=0;exitPerimeter=0;" edge="1" parent="vmclhji-gHsYDWOaVS8r-1" source="PFkXwJeBTqDMAtfAi6ST-3" target="PFkXwJeBTqDMAtfAi6ST-4">
          <mxGeometry x="-0.0226" y="7" width="80" relative="1" as="geometry">
            <mxPoint x="890" y="410" as="sourcePoint"/>
            <mxPoint x="970" y="410" as="targetPoint"/>
            <mxPoint as="offset"/>
          </mxGeometry>
        </mxCell>
        <mxCell id="PFkXwJeBTqDMAtfAi6ST-8" value="type=donation,from=supplier,&lt;br&gt;to=system,items=item" style="html=1;verticalAlign=bottom;endArrow=block;exitX=1;exitY=0.5;exitDx=0;exitDy=0;exitPerimeter=0;entryX=0;entryY=0.5;entryDx=0;entryDy=0;entryPerimeter=0;" edge="1" parent="vmclhji-gHsYDWOaVS8r-1" source="PFkXwJeBTqDMAtfAi6ST-3" target="PFkXwJeBTqDMAtfAi6ST-5">
          <mxGeometry x="0.1247" y="9" width="80" relative="1" as="geometry">
            <mxPoint x="920" y="397" as="sourcePoint"/>
            <mxPoint x="1000" y="397" as="targetPoint"/>
            <mxPoint as="offset"/>
          </mxGeometry>
        </mxCell>
        <mxCell id="PFkXwJeBTqDMAtfAi6ST-9" value="" style="endArrow=none;html=1;exitX=1;exitY=0.5;exitDx=0;exitDy=0;exitPerimeter=0;entryX=0;entryY=0.5;entryDx=0;entryDy=0;entryPerimeter=0;" edge="1" parent="vmclhji-gHsYDWOaVS8r-1" source="PFkXwJeBTqDMAtfAi6ST-0" target="PFkXwJeBTqDMAtfAi6ST-12">
          <mxGeometry width="50" height="50" relative="1" as="geometry">
            <mxPoint x="210" y="330" as="sourcePoint"/>
            <mxPoint x="480" y="469.2857142857142" as="targetPoint"/>
          </mxGeometry>
        </mxCell>
        <mxCell id="PFkXwJeBTqDMAtfAi6ST-10" value="" style="endArrow=none;html=1;exitX=1;exitY=0.5;exitDx=0;exitDy=0;exitPerimeter=0;entryX=0;entryY=0.5;entryDx=0;entryDy=0;entryPerimeter=0;" edge="1" parent="vmclhji-gHsYDWOaVS8r-1" source="PFkXwJeBTqDMAtfAi6ST-1" target="PFkXwJeBTqDMAtfAi6ST-12">
          <mxGeometry width="50" height="50" relative="1" as="geometry">
            <mxPoint x="210" y="480" as="sourcePoint"/>
            <mxPoint x="480" y="469.2857142857142" as="targetPoint"/>
          </mxGeometry>
        </mxCell>
        <mxCell id="PFkXwJeBTqDMAtfAi6ST-11" value="" style="endArrow=none;html=1;exitX=1;exitY=0.5;exitDx=0;exitDy=0;exitPerimeter=0;entryX=0;entryY=0.5;entryDx=0;entryDy=0;entryPerimeter=0;" edge="1" parent="vmclhji-gHsYDWOaVS8r-1" source="PFkXwJeBTqDMAtfAi6ST-2" target="PFkXwJeBTqDMAtfAi6ST-12">
          <mxGeometry width="50" height="50" relative="1" as="geometry">
            <mxPoint x="210" y="640" as="sourcePoint"/>
            <mxPoint x="480" y="469.2857142857142" as="targetPoint"/>
          </mxGeometry>
        </mxCell>
        <mxCell id="PFkXwJeBTqDMAtfAi6ST-12" value="SeichiAssist" style="fontColor=#0066CC;verticalAlign=top;verticalLabelPosition=bottom;labelPosition=center;align=center;html=1;outlineConnect=0;fillColor=#CCCCCC;strokeColor=#6881B3;gradientColor=none;gradientDirection=north;strokeWidth=2;shape=mxgraph.networks.mainframe;" vertex="1" parent="vmclhji-gHsYDWOaVS8r-1">
          <mxGeometry x="480" y="420" width="80" height="100" as="geometry"/>
        </mxCell>
        <mxCell id="PFkXwJeBTqDMAtfAi6ST-13" value="donate" style="html=1;verticalAlign=bottom;endArrow=block;entryX=0;entryY=0.4;entryDx=0;entryDy=0;entryPerimeter=0;" edge="1" parent="vmclhji-gHsYDWOaVS8r-1" target="PFkXwJeBTqDMAtfAi6ST-3">
          <mxGeometry width="80" relative="1" as="geometry">
            <mxPoint x="560" y="460" as="sourcePoint"/>
            <mxPoint x="830" y="460" as="targetPoint"/>
          </mxGeometry>
        </mxCell>
        <mxCell id="PFkXwJeBTqDMAtfAi6ST-14" value="Item Donation Points" style="fontColor=#0066CC;verticalAlign=top;verticalLabelPosition=bottom;labelPosition=center;align=center;html=1;outlineConnect=0;fillColor=#CCCCCC;strokeColor=#6881B3;gradientColor=none;gradientDirection=north;strokeWidth=2;shape=mxgraph.networks.storage;" vertex="1" parent="vmclhji-gHsYDWOaVS8r-1">
          <mxGeometry x="1070" y="580" width="100" height="100" as="geometry"/>
        </mxCell>
        <mxCell id="PFkXwJeBTqDMAtfAi6ST-15" value="Ranking API&lt;br&gt;(interim)" style="fontColor=#0066CC;verticalAlign=top;verticalLabelPosition=bottom;labelPosition=center;align=center;html=1;outlineConnect=0;fillColor=#CCCCCC;strokeColor=#6881B3;gradientColor=none;gradientDirection=north;strokeWidth=2;shape=mxgraph.networks.rack;" vertex="1" parent="vmclhji-gHsYDWOaVS8r-1">
          <mxGeometry x="840" y="580" width="50" height="100" as="geometry"/>
        </mxCell>
        <mxCell id="Jn5l6fbC6995a_H83g6t-0" value="Increase point" style="html=1;verticalAlign=bottom;endArrow=block;entryX=0;entryY=0.5;entryDx=0;entryDy=0;entryPerimeter=0;exitX=1;exitY=0.5;exitDx=0;exitDy=0;exitPerimeter=0;" edge="1" parent="vmclhji-gHsYDWOaVS8r-1" source="PFkXwJeBTqDMAtfAi6ST-15" target="PFkXwJeBTqDMAtfAi6ST-14">
          <mxGeometry width="80" relative="1" as="geometry">
            <mxPoint x="990" y="740" as="sourcePoint"/>
            <mxPoint x="1070" y="740" as="targetPoint"/>
          </mxGeometry>
        </mxCell>
        <mxCell id="Jn5l6fbC6995a_H83g6t-1" value="donate" style="html=1;verticalAlign=bottom;endArrow=block;entryX=0;entryY=0.5;entryDx=0;entryDy=0;entryPerimeter=0;curved=1;exitX=1;exitY=0.5;exitDx=0;exitDy=0;exitPerimeter=0;" edge="1" parent="vmclhji-gHsYDWOaVS8r-1" source="PFkXwJeBTqDMAtfAi6ST-12" target="PFkXwJeBTqDMAtfAi6ST-15">
          <mxGeometry width="80" relative="1" as="geometry">
            <mxPoint x="560" y="460" as="sourcePoint"/>
            <mxPoint x="730" y="510" as="targetPoint"/>
            <Array as="points">
              <mxPoint x="720" y="520"/>
            </Array>
          </mxGeometry>
        </mxCell>
        <mxCell id="Jn5l6fbC6995a_H83g6t-2" value="ret top" style="html=1;verticalAlign=bottom;endArrow=block;entryX=1;entryY=0.5;entryDx=0;entryDy=0;entryPerimeter=0;exitX=0;exitY=0.5;exitDx=0;exitDy=0;exitPerimeter=0;curved=1;" edge="1" parent="vmclhji-gHsYDWOaVS8r-1" source="PFkXwJeBTqDMAtfAi6ST-15" target="PFkXwJeBTqDMAtfAi6ST-12">
          <mxGeometry width="80" relative="1" as="geometry">
            <mxPoint x="680" y="640" as="sourcePoint"/>
            <mxPoint x="760" y="640" as="targetPoint"/>
            <Array as="points">
              <mxPoint x="670" y="590"/>
            </Array>
          </mxGeometry>
        </mxCell>
        <mxCell id="Jn5l6fbC6995a_H83g6t-3" value="regenerate world" style="html=1;verticalAlign=bottom;endArrow=block;exitX=0.5;exitY=0.05;exitDx=0;exitDy=0;exitPerimeter=0;" edge="1" parent="vmclhji-gHsYDWOaVS8r-1" source="PFkXwJeBTqDMAtfAi6ST-12">
          <mxGeometry width="80" relative="1" as="geometry">
            <mxPoint x="480" y="340" as="sourcePoint"/>
            <mxPoint x="520" y="340" as="targetPoint"/>
          </mxGeometry>
        </mxCell>
        <mxCell id="Jn5l6fbC6995a_H83g6t-14" value="" style="group" vertex="1" connectable="0" parent="vmclhji-gHsYDWOaVS8r-1">
          <mxGeometry x="500" y="295" width="40" height="45" as="geometry"/>
        </mxCell>
        <mxCell id="Jn5l6fbC6995a_H83g6t-12" value="" style="whiteSpace=wrap;html=1;aspect=fixed;fillColor=#CC6600;strokeColor=none;" vertex="1" parent="Jn5l6fbC6995a_H83g6t-14">
          <mxGeometry y="5" width="40" height="40" as="geometry"/>
        </mxCell>
        <mxCell id="Jn5l6fbC6995a_H83g6t-11" value="" style="triangle;whiteSpace=wrap;html=1;fillColor=#97D077;strokeColor=none;rotation=90;" vertex="1" parent="Jn5l6fbC6995a_H83g6t-14">
          <mxGeometry x="5" width="10" height="20" as="geometry"/>
        </mxCell>
        <mxCell id="Jn5l6fbC6995a_H83g6t-13" value="" style="triangle;whiteSpace=wrap;html=1;fillColor=#97D077;strokeColor=none;rotation=90;" vertex="1" parent="Jn5l6fbC6995a_H83g6t-14">
          <mxGeometry x="25" width="10" height="20" as="geometry"/>
        </mxCell>
        <mxCell id="Jn5l6fbC6995a_H83g6t-15" value="" style="endArrow=classic;html=1;strokeColor=#000000;rounded=0;entryX=1;entryY=0.5;entryDx=0;entryDy=0;entryPerimeter=0;exitX=0;exitY=0.5;exitDx=0;exitDy=0;" edge="1" parent="vmclhji-gHsYDWOaVS8r-1" source="Jn5l6fbC6995a_H83g6t-12" target="PFkXwJeBTqDMAtfAi6ST-0">
          <mxGeometry width="50" height="50" relative="1" as="geometry">
            <mxPoint x="495" y="320" as="sourcePoint"/>
            <mxPoint x="445" y="290" as="targetPoint"/>
          </mxGeometry>
        </mxCell>
        <mxCell id="Jn5l6fbC6995a_H83g6t-16" value="" style="endArrow=classic;html=1;strokeColor=#000000;entryX=1;entryY=0.5;entryDx=0;entryDy=0;entryPerimeter=0;exitX=0;exitY=0.5;exitDx=0;exitDy=0;" edge="1" parent="vmclhji-gHsYDWOaVS8r-1" source="Jn5l6fbC6995a_H83g6t-12" target="PFkXwJeBTqDMAtfAi6ST-1">
          <mxGeometry width="50" height="50" relative="1" as="geometry">
            <mxPoint x="500" y="320" as="sourcePoint"/>
            <mxPoint x="450" y="335" as="targetPoint"/>
          </mxGeometry>
        </mxCell>
        <mxCell id="Jn5l6fbC6995a_H83g6t-17" value="" style="endArrow=classic;html=1;strokeColor=#000000;entryX=1;entryY=0.5;entryDx=0;entryDy=0;entryPerimeter=0;exitX=0;exitY=0.5;exitDx=0;exitDy=0;" edge="1" parent="vmclhji-gHsYDWOaVS8r-1" source="Jn5l6fbC6995a_H83g6t-12" target="PFkXwJeBTqDMAtfAi6ST-2">
          <mxGeometry width="50" height="50" relative="1" as="geometry">
            <mxPoint x="395" y="425" as="sourcePoint"/>
            <mxPoint x="445" y="375" as="targetPoint"/>
          </mxGeometry>
        </mxCell>
        <mxCell id="ATq80IMBc1RvqDxoY6Vr-0" value="TL;DR:ブロック寄付PTトップに整地ワールド&lt;br&gt;のシード設定権を渡す" style="text;html=1;align=center;verticalAlign=middle;resizable=0;points=[];autosize=1;" vertex="1" parent="vmclhji-gHsYDWOaVS8r-1">
          <mxGeometry x="150" y="235" width="260" height="35" as="geometry"/>
        </mxCell>
      </root>
    </mxGraphModel>
  </diagram>
  <diagram id="Ct-xHyIdqQKprO6FDj6A" name="TRACKER-7356">
    <mxGraphModel dx="1064" dy="680" grid="1" gridSize="10" guides="1" tooltips="1" connect="1" arrows="1" fold="1" page="1" pageScale="1" pageWidth="827" pageHeight="1169" math="0" shadow="0">
      <root>
        <mxCell id="jsFk_Q6S1-p38Xfhxlee-0"/>
        <mxCell id="jsFk_Q6S1-p38Xfhxlee-1" parent="jsFk_Q6S1-p38Xfhxlee-0"/>
        <mxCell id="jsFk_Q6S1-p38Xfhxlee-2" value="Arcadia (aka S1)" style="fontColor=#0066CC;verticalAlign=top;verticalLabelPosition=bottom;labelPosition=center;align=center;html=1;outlineConnect=0;fillColor=#CCCCCC;strokeColor=#6881B3;gradientColor=none;gradientDirection=north;strokeWidth=2;shape=mxgraph.networks.rack;" vertex="1" parent="jsFk_Q6S1-p38Xfhxlee-1">
          <mxGeometry x="50" y="245" width="50" height="100" as="geometry"/>
        </mxCell>
        <mxCell id="jsFk_Q6S1-p38Xfhxlee-3" value="Eden (aka S2)" style="fontColor=#0066CC;verticalAlign=top;verticalLabelPosition=bottom;labelPosition=center;align=center;html=1;outlineConnect=0;fillColor=#CCCCCC;strokeColor=#6881B3;gradientColor=none;gradientDirection=north;strokeWidth=2;shape=mxgraph.networks.rack;" vertex="1" parent="jsFk_Q6S1-p38Xfhxlee-1">
          <mxGeometry x="50" y="395" width="50" height="100" as="geometry"/>
        </mxCell>
        <mxCell id="jsFk_Q6S1-p38Xfhxlee-4" value="Valhalla (aka S3)" style="fontColor=#0066CC;verticalAlign=top;verticalLabelPosition=bottom;labelPosition=center;align=center;html=1;outlineConnect=0;fillColor=#CCCCCC;strokeColor=#6881B3;gradientColor=none;gradientDirection=north;strokeWidth=2;shape=mxgraph.networks.rack;" vertex="1" parent="jsFk_Q6S1-p38Xfhxlee-1">
          <mxGeometry x="50" y="555" width="50" height="100" as="geometry"/>
        </mxCell>
        <mxCell id="jsFk_Q6S1-p38Xfhxlee-5" value="Item Transaction API" style="fontColor=#0066CC;verticalAlign=top;verticalLabelPosition=bottom;labelPosition=center;align=center;html=1;outlineConnect=0;fillColor=#CCCCCC;strokeColor=#6881B3;gradientColor=none;gradientDirection=north;strokeWidth=2;shape=mxgraph.networks.rack;" vertex="1" parent="jsFk_Q6S1-p38Xfhxlee-1">
          <mxGeometry x="740" y="395" width="50" height="100" as="geometry"/>
        </mxCell>
        <mxCell id="jsFk_Q6S1-p38Xfhxlee-6" value="Minestack" style="fontColor=#0066CC;verticalAlign=top;verticalLabelPosition=bottom;labelPosition=center;align=center;html=1;outlineConnect=0;fillColor=#CCCCCC;strokeColor=#6881B3;gradientColor=none;gradientDirection=north;strokeWidth=2;shape=mxgraph.networks.storage;" vertex="1" parent="jsFk_Q6S1-p38Xfhxlee-1">
          <mxGeometry x="980" y="245" width="100" height="100" as="geometry"/>
        </mxCell>
        <mxCell id="jsFk_Q6S1-p38Xfhxlee-7" value="Transaction History" style="fontColor=#0066CC;verticalAlign=top;verticalLabelPosition=bottom;labelPosition=center;align=center;html=1;outlineConnect=0;fillColor=#CCCCCC;strokeColor=#6881B3;gradientColor=none;gradientDirection=north;strokeWidth=2;shape=mxgraph.networks.storage;" vertex="1" parent="jsFk_Q6S1-p38Xfhxlee-1">
          <mxGeometry x="970" y="425" width="100" height="100" as="geometry"/>
        </mxCell>
        <mxCell id="jsFk_Q6S1-p38Xfhxlee-8" value="commit" style="html=1;verticalAlign=bottom;endArrow=block;entryX=0;entryY=0.5;entryDx=0;entryDy=0;entryPerimeter=0;exitX=1;exitY=0.5;exitDx=0;exitDy=0;exitPerimeter=0;" edge="1" parent="jsFk_Q6S1-p38Xfhxlee-1" source="jsFk_Q6S1-p38Xfhxlee-5" target="jsFk_Q6S1-p38Xfhxlee-6">
          <mxGeometry x="-0.0226" y="7" width="80" relative="1" as="geometry">
            <mxPoint x="790" y="385" as="sourcePoint"/>
            <mxPoint x="870" y="385" as="targetPoint"/>
            <mxPoint as="offset"/>
          </mxGeometry>
        </mxCell>
        <mxCell id="jsFk_Q6S1-p38Xfhxlee-9" value="type=donation,from=supplier,&lt;br&gt;to=system,items=item" style="html=1;verticalAlign=bottom;endArrow=block;exitX=1;exitY=0.5;exitDx=0;exitDy=0;exitPerimeter=0;entryX=0;entryY=0.5;entryDx=0;entryDy=0;entryPerimeter=0;" edge="1" parent="jsFk_Q6S1-p38Xfhxlee-1" source="jsFk_Q6S1-p38Xfhxlee-5" target="jsFk_Q6S1-p38Xfhxlee-7">
          <mxGeometry x="0.1247" y="9" width="80" relative="1" as="geometry">
            <mxPoint x="820" y="372" as="sourcePoint"/>
            <mxPoint x="900" y="372" as="targetPoint"/>
            <mxPoint as="offset"/>
          </mxGeometry>
        </mxCell>
        <mxCell id="jsFk_Q6S1-p38Xfhxlee-10" value="" style="endArrow=none;html=1;exitX=1;exitY=0.5;exitDx=0;exitDy=0;exitPerimeter=0;entryX=0;entryY=0.5;entryDx=0;entryDy=0;entryPerimeter=0;" edge="1" parent="jsFk_Q6S1-p38Xfhxlee-1" source="jsFk_Q6S1-p38Xfhxlee-2" target="jsFk_Q6S1-p38Xfhxlee-13">
          <mxGeometry width="50" height="50" relative="1" as="geometry">
            <mxPoint x="110" y="305" as="sourcePoint"/>
            <mxPoint x="380" y="444.2857142857142" as="targetPoint"/>
          </mxGeometry>
        </mxCell>
        <mxCell id="jsFk_Q6S1-p38Xfhxlee-11" value="" style="endArrow=none;html=1;exitX=1;exitY=0.5;exitDx=0;exitDy=0;exitPerimeter=0;entryX=0;entryY=0.5;entryDx=0;entryDy=0;entryPerimeter=0;" edge="1" parent="jsFk_Q6S1-p38Xfhxlee-1" source="jsFk_Q6S1-p38Xfhxlee-3" target="jsFk_Q6S1-p38Xfhxlee-13">
          <mxGeometry width="50" height="50" relative="1" as="geometry">
            <mxPoint x="110" y="455" as="sourcePoint"/>
            <mxPoint x="380" y="444.2857142857142" as="targetPoint"/>
          </mxGeometry>
        </mxCell>
        <mxCell id="jsFk_Q6S1-p38Xfhxlee-12" value="" style="endArrow=none;html=1;exitX=1;exitY=0.5;exitDx=0;exitDy=0;exitPerimeter=0;entryX=0;entryY=0.5;entryDx=0;entryDy=0;entryPerimeter=0;" edge="1" parent="jsFk_Q6S1-p38Xfhxlee-1" source="jsFk_Q6S1-p38Xfhxlee-4" target="jsFk_Q6S1-p38Xfhxlee-13">
          <mxGeometry width="50" height="50" relative="1" as="geometry">
            <mxPoint x="110" y="615" as="sourcePoint"/>
            <mxPoint x="380" y="444.2857142857142" as="targetPoint"/>
          </mxGeometry>
        </mxCell>
        <mxCell id="jsFk_Q6S1-p38Xfhxlee-13" value="SeichiAssist" style="fontColor=#0066CC;verticalAlign=top;verticalLabelPosition=bottom;labelPosition=center;align=center;html=1;outlineConnect=0;fillColor=#CCCCCC;strokeColor=#6881B3;gradientColor=none;gradientDirection=north;strokeWidth=2;shape=mxgraph.networks.mainframe;" vertex="1" parent="jsFk_Q6S1-p38Xfhxlee-1">
          <mxGeometry x="380" y="395" width="80" height="100" as="geometry"/>
        </mxCell>
        <mxCell id="jsFk_Q6S1-p38Xfhxlee-14" value="donate" style="html=1;verticalAlign=bottom;endArrow=block;entryX=0;entryY=0.4;entryDx=0;entryDy=0;entryPerimeter=0;" edge="1" parent="jsFk_Q6S1-p38Xfhxlee-1" target="jsFk_Q6S1-p38Xfhxlee-5">
          <mxGeometry width="80" relative="1" as="geometry">
            <mxPoint x="460" y="435" as="sourcePoint"/>
            <mxPoint x="730" y="435" as="targetPoint"/>
          </mxGeometry>
        </mxCell>
        <mxCell id="jsFk_Q6S1-p38Xfhxlee-15" value="Item Donation Points" style="fontColor=#0066CC;verticalAlign=top;verticalLabelPosition=bottom;labelPosition=center;align=center;html=1;outlineConnect=0;fillColor=#CCCCCC;strokeColor=#6881B3;gradientColor=none;gradientDirection=north;strokeWidth=2;shape=mxgraph.networks.storage;" vertex="1" parent="jsFk_Q6S1-p38Xfhxlee-1">
          <mxGeometry x="970" y="555" width="100" height="100" as="geometry"/>
        </mxCell>
        <mxCell id="jsFk_Q6S1-p38Xfhxlee-16" value="Ranking API&lt;br&gt;(interim)" style="fontColor=#0066CC;verticalAlign=top;verticalLabelPosition=bottom;labelPosition=center;align=center;html=1;outlineConnect=0;fillColor=#CCCCCC;strokeColor=#6881B3;gradientColor=none;gradientDirection=north;strokeWidth=2;shape=mxgraph.networks.rack;" vertex="1" parent="jsFk_Q6S1-p38Xfhxlee-1">
          <mxGeometry x="740" y="555" width="50" height="100" as="geometry"/>
        </mxCell>
        <mxCell id="jsFk_Q6S1-p38Xfhxlee-17" value="Increase point" style="html=1;verticalAlign=bottom;endArrow=block;entryX=0;entryY=0.5;entryDx=0;entryDy=0;entryPerimeter=0;exitX=1;exitY=0.5;exitDx=0;exitDy=0;exitPerimeter=0;" edge="1" parent="jsFk_Q6S1-p38Xfhxlee-1" source="jsFk_Q6S1-p38Xfhxlee-16" target="jsFk_Q6S1-p38Xfhxlee-15">
          <mxGeometry width="80" relative="1" as="geometry">
            <mxPoint x="890" y="715" as="sourcePoint"/>
            <mxPoint x="970" y="715" as="targetPoint"/>
          </mxGeometry>
        </mxCell>
        <mxCell id="jsFk_Q6S1-p38Xfhxlee-18" value="donate" style="html=1;verticalAlign=bottom;endArrow=block;entryX=0;entryY=0.5;entryDx=0;entryDy=0;entryPerimeter=0;curved=1;exitX=1;exitY=0.5;exitDx=0;exitDy=0;exitPerimeter=0;" edge="1" parent="jsFk_Q6S1-p38Xfhxlee-1" source="jsFk_Q6S1-p38Xfhxlee-13" target="jsFk_Q6S1-p38Xfhxlee-16">
          <mxGeometry width="80" relative="1" as="geometry">
            <mxPoint x="460" y="435" as="sourcePoint"/>
            <mxPoint x="630" y="485" as="targetPoint"/>
            <Array as="points">
              <mxPoint x="620" y="495"/>
            </Array>
          </mxGeometry>
        </mxCell>
        <mxCell id="jsFk_Q6S1-p38Xfhxlee-19" value="ret top" style="html=1;verticalAlign=bottom;endArrow=block;entryX=1;entryY=0.5;entryDx=0;entryDy=0;entryPerimeter=0;exitX=0;exitY=0.5;exitDx=0;exitDy=0;exitPerimeter=0;curved=1;" edge="1" parent="jsFk_Q6S1-p38Xfhxlee-1" source="jsFk_Q6S1-p38Xfhxlee-16" target="jsFk_Q6S1-p38Xfhxlee-13">
          <mxGeometry width="80" relative="1" as="geometry">
            <mxPoint x="580" y="615" as="sourcePoint"/>
            <mxPoint x="660" y="615" as="targetPoint"/>
            <Array as="points">
              <mxPoint x="570" y="565"/>
            </Array>
          </mxGeometry>
        </mxCell>
        <mxCell id="jsFk_Q6S1-p38Xfhxlee-20" value="set warp point" style="html=1;verticalAlign=bottom;endArrow=block;exitX=0.5;exitY=0.05;exitDx=0;exitDy=0;exitPerimeter=0;" edge="1" parent="jsFk_Q6S1-p38Xfhxlee-1" source="jsFk_Q6S1-p38Xfhxlee-13">
          <mxGeometry width="80" relative="1" as="geometry">
            <mxPoint x="380" y="315" as="sourcePoint"/>
            <mxPoint x="420" y="315" as="targetPoint"/>
          </mxGeometry>
        </mxCell>
        <mxCell id="jsFk_Q6S1-p38Xfhxlee-25" value="" style="endArrow=classic;html=1;strokeColor=#000000;rounded=0;entryX=1;entryY=0.5;entryDx=0;entryDy=0;entryPerimeter=0;exitX=0;exitY=0.5;exitDx=0;exitDy=0;" edge="1" parent="jsFk_Q6S1-p38Xfhxlee-1" target="jsFk_Q6S1-p38Xfhxlee-2">
          <mxGeometry width="50" height="50" relative="1" as="geometry">
            <mxPoint x="400" y="295" as="sourcePoint"/>
            <mxPoint x="345" y="265" as="targetPoint"/>
          </mxGeometry>
        </mxCell>
        <mxCell id="jsFk_Q6S1-p38Xfhxlee-26" value="" style="endArrow=classic;html=1;strokeColor=#000000;entryX=1;entryY=0.5;entryDx=0;entryDy=0;entryPerimeter=0;exitX=0;exitY=0.5;exitDx=0;exitDy=0;" edge="1" parent="jsFk_Q6S1-p38Xfhxlee-1" target="jsFk_Q6S1-p38Xfhxlee-3">
          <mxGeometry width="50" height="50" relative="1" as="geometry">
            <mxPoint x="400" y="295" as="sourcePoint"/>
            <mxPoint x="350" y="310" as="targetPoint"/>
          </mxGeometry>
        </mxCell>
        <mxCell id="jsFk_Q6S1-p38Xfhxlee-27" value="" style="endArrow=classic;html=1;strokeColor=#000000;entryX=1;entryY=0.5;entryDx=0;entryDy=0;entryPerimeter=0;exitX=0;exitY=0.5;exitDx=0;exitDy=0;" edge="1" parent="jsFk_Q6S1-p38Xfhxlee-1" target="jsFk_Q6S1-p38Xfhxlee-4">
          <mxGeometry width="50" height="50" relative="1" as="geometry">
            <mxPoint x="400" y="295" as="sourcePoint"/>
            <mxPoint x="345" y="350" as="targetPoint"/>
          </mxGeometry>
        </mxCell>
        <mxCell id="jsFk_Q6S1-p38Xfhxlee-28" value="TL;DR:ブロック寄付PTトップに任意地点へ&lt;br&gt;のワープ設定権を渡す" style="text;html=1;align=center;verticalAlign=middle;resizable=0;points=[];autosize=1;" vertex="1" parent="jsFk_Q6S1-p38Xfhxlee-1">
          <mxGeometry x="55" y="213" width="250" height="30" as="geometry"/>
        </mxCell>
        <mxCell id="jsFk_Q6S1-p38Xfhxlee-29" value="" style="ellipse;whiteSpace=wrap;html=1;aspect=fixed;fillColor=none;strokeWidth=5;" vertex="1" parent="jsFk_Q6S1-p38Xfhxlee-1">
          <mxGeometry x="400" y="275" width="40" height="40" as="geometry"/>
        </mxCell>
        <mxCell id="jsFk_Q6S1-p38Xfhxlee-30" value="" style="ellipse;whiteSpace=wrap;html=1;aspect=fixed;strokeWidth=5;fillColor=none;" vertex="1" parent="jsFk_Q6S1-p38Xfhxlee-1">
          <mxGeometry x="412.5" y="287.5" width="15" height="15" as="geometry"/>
        </mxCell>
      </root>
    </mxGraphModel>
  </diagram>
  <diagram id="n3IuHU3W-JQwAaA00FMR" name="TRACKER-7357">
    <mxGraphModel dx="1277" dy="816" grid="1" gridSize="10" guides="1" tooltips="1" connect="1" arrows="1" fold="1" page="1" pageScale="1" pageWidth="827" pageHeight="1169" math="0" shadow="0">
      <root>
        <mxCell id="h2vfEFJqbL76fpFuShd4-0"/>
        <mxCell id="h2vfEFJqbL76fpFuShd4-1" parent="h2vfEFJqbL76fpFuShd4-0"/>
        <mxCell id="h2vfEFJqbL76fpFuShd4-2" value="Arcadia (aka S1)" style="fontColor=#0066CC;verticalAlign=top;verticalLabelPosition=bottom;labelPosition=center;align=center;html=1;outlineConnect=0;fillColor=#CCCCCC;strokeColor=#6881B3;gradientColor=none;gradientDirection=north;strokeWidth=2;shape=mxgraph.networks.rack;" vertex="1" parent="h2vfEFJqbL76fpFuShd4-1">
          <mxGeometry x="20" y="275" width="50" height="100" as="geometry"/>
        </mxCell>
        <mxCell id="h2vfEFJqbL76fpFuShd4-3" value="Eden (aka S2)" style="fontColor=#0066CC;verticalAlign=top;verticalLabelPosition=bottom;labelPosition=center;align=center;html=1;outlineConnect=0;fillColor=#CCCCCC;strokeColor=#6881B3;gradientColor=none;gradientDirection=north;strokeWidth=2;shape=mxgraph.networks.rack;" vertex="1" parent="h2vfEFJqbL76fpFuShd4-1">
          <mxGeometry x="20" y="425" width="50" height="100" as="geometry"/>
        </mxCell>
        <mxCell id="h2vfEFJqbL76fpFuShd4-4" value="Valhalla (aka S3)" style="fontColor=#0066CC;verticalAlign=top;verticalLabelPosition=bottom;labelPosition=center;align=center;html=1;outlineConnect=0;fillColor=#CCCCCC;strokeColor=#6881B3;gradientColor=none;gradientDirection=north;strokeWidth=2;shape=mxgraph.networks.rack;" vertex="1" parent="h2vfEFJqbL76fpFuShd4-1">
          <mxGeometry x="20" y="585" width="50" height="100" as="geometry"/>
        </mxCell>
        <mxCell id="h2vfEFJqbL76fpFuShd4-5" value="Item Transaction API" style="fontColor=#0066CC;verticalAlign=top;verticalLabelPosition=bottom;labelPosition=center;align=center;html=1;outlineConnect=0;fillColor=#CCCCCC;strokeColor=#6881B3;gradientColor=none;gradientDirection=north;strokeWidth=2;shape=mxgraph.networks.rack;" vertex="1" parent="h2vfEFJqbL76fpFuShd4-1">
          <mxGeometry x="710" y="425" width="50" height="100" as="geometry"/>
        </mxCell>
        <mxCell id="h2vfEFJqbL76fpFuShd4-6" value="Minestack" style="fontColor=#0066CC;verticalAlign=top;verticalLabelPosition=bottom;labelPosition=center;align=center;html=1;outlineConnect=0;fillColor=#CCCCCC;strokeColor=#6881B3;gradientColor=none;gradientDirection=north;strokeWidth=2;shape=mxgraph.networks.storage;" vertex="1" parent="h2vfEFJqbL76fpFuShd4-1">
          <mxGeometry x="950" y="275" width="100" height="100" as="geometry"/>
        </mxCell>
        <mxCell id="h2vfEFJqbL76fpFuShd4-7" value="Transaction History" style="fontColor=#0066CC;verticalAlign=top;verticalLabelPosition=bottom;labelPosition=center;align=center;html=1;outlineConnect=0;fillColor=#CCCCCC;strokeColor=#6881B3;gradientColor=none;gradientDirection=north;strokeWidth=2;shape=mxgraph.networks.storage;" vertex="1" parent="h2vfEFJqbL76fpFuShd4-1">
          <mxGeometry x="940" y="455" width="100" height="100" as="geometry"/>
        </mxCell>
        <mxCell id="h2vfEFJqbL76fpFuShd4-8" value="commit" style="html=1;verticalAlign=bottom;endArrow=block;entryX=0;entryY=0.5;entryDx=0;entryDy=0;entryPerimeter=0;exitX=1;exitY=0.5;exitDx=0;exitDy=0;exitPerimeter=0;" edge="1" parent="h2vfEFJqbL76fpFuShd4-1" source="h2vfEFJqbL76fpFuShd4-5" target="h2vfEFJqbL76fpFuShd4-6">
          <mxGeometry x="-0.0226" y="7" width="80" relative="1" as="geometry">
            <mxPoint x="760" y="415" as="sourcePoint"/>
            <mxPoint x="840" y="415" as="targetPoint"/>
            <mxPoint as="offset"/>
          </mxGeometry>
        </mxCell>
        <mxCell id="h2vfEFJqbL76fpFuShd4-9" value="type=donation,from=supplier,&lt;br&gt;to=system,items=item" style="html=1;verticalAlign=bottom;endArrow=block;exitX=1;exitY=0.5;exitDx=0;exitDy=0;exitPerimeter=0;entryX=0;entryY=0.5;entryDx=0;entryDy=0;entryPerimeter=0;" edge="1" parent="h2vfEFJqbL76fpFuShd4-1" source="h2vfEFJqbL76fpFuShd4-5" target="h2vfEFJqbL76fpFuShd4-7">
          <mxGeometry x="0.1247" y="9" width="80" relative="1" as="geometry">
            <mxPoint x="790" y="402" as="sourcePoint"/>
            <mxPoint x="870" y="402" as="targetPoint"/>
            <mxPoint as="offset"/>
          </mxGeometry>
        </mxCell>
        <mxCell id="h2vfEFJqbL76fpFuShd4-10" value="" style="endArrow=none;html=1;exitX=1;exitY=0.5;exitDx=0;exitDy=0;exitPerimeter=0;entryX=0;entryY=0.5;entryDx=0;entryDy=0;entryPerimeter=0;" edge="1" parent="h2vfEFJqbL76fpFuShd4-1" source="h2vfEFJqbL76fpFuShd4-2" target="h2vfEFJqbL76fpFuShd4-13">
          <mxGeometry width="50" height="50" relative="1" as="geometry">
            <mxPoint x="80" y="335" as="sourcePoint"/>
            <mxPoint x="350" y="474.2857142857142" as="targetPoint"/>
          </mxGeometry>
        </mxCell>
        <mxCell id="h2vfEFJqbL76fpFuShd4-11" value="" style="endArrow=none;html=1;exitX=1;exitY=0.5;exitDx=0;exitDy=0;exitPerimeter=0;entryX=0;entryY=0.5;entryDx=0;entryDy=0;entryPerimeter=0;" edge="1" parent="h2vfEFJqbL76fpFuShd4-1" source="h2vfEFJqbL76fpFuShd4-3" target="h2vfEFJqbL76fpFuShd4-13">
          <mxGeometry width="50" height="50" relative="1" as="geometry">
            <mxPoint x="80" y="485" as="sourcePoint"/>
            <mxPoint x="350" y="474.2857142857142" as="targetPoint"/>
          </mxGeometry>
        </mxCell>
        <mxCell id="h2vfEFJqbL76fpFuShd4-12" value="" style="endArrow=none;html=1;exitX=1;exitY=0.5;exitDx=0;exitDy=0;exitPerimeter=0;entryX=0;entryY=0.5;entryDx=0;entryDy=0;entryPerimeter=0;" edge="1" parent="h2vfEFJqbL76fpFuShd4-1" source="h2vfEFJqbL76fpFuShd4-4" target="h2vfEFJqbL76fpFuShd4-13">
          <mxGeometry width="50" height="50" relative="1" as="geometry">
            <mxPoint x="80" y="645" as="sourcePoint"/>
            <mxPoint x="350" y="474.2857142857142" as="targetPoint"/>
          </mxGeometry>
        </mxCell>
        <mxCell id="h2vfEFJqbL76fpFuShd4-13" value="SeichiAssist" style="fontColor=#0066CC;verticalAlign=top;verticalLabelPosition=bottom;labelPosition=center;align=center;html=1;outlineConnect=0;fillColor=#CCCCCC;strokeColor=#6881B3;gradientColor=none;gradientDirection=north;strokeWidth=2;shape=mxgraph.networks.mainframe;" vertex="1" parent="h2vfEFJqbL76fpFuShd4-1">
          <mxGeometry x="350" y="425" width="80" height="100" as="geometry"/>
        </mxCell>
        <mxCell id="h2vfEFJqbL76fpFuShd4-14" value="donate" style="html=1;verticalAlign=bottom;endArrow=block;entryX=0;entryY=0.4;entryDx=0;entryDy=0;entryPerimeter=0;" edge="1" parent="h2vfEFJqbL76fpFuShd4-1" target="h2vfEFJqbL76fpFuShd4-5">
          <mxGeometry width="80" relative="1" as="geometry">
            <mxPoint x="430" y="465" as="sourcePoint"/>
            <mxPoint x="700" y="465" as="targetPoint"/>
          </mxGeometry>
        </mxCell>
        <mxCell id="h2vfEFJqbL76fpFuShd4-15" value="Extended Level Limit File" style="fontColor=#0066CC;verticalAlign=top;verticalLabelPosition=bottom;labelPosition=center;align=center;html=1;outlineConnect=0;fillColor=#CCCCCC;strokeColor=#6881B3;gradientColor=none;gradientDirection=north;strokeWidth=2;shape=mxgraph.networks.storage;" vertex="1" parent="h2vfEFJqbL76fpFuShd4-1">
          <mxGeometry x="940" y="585" width="100" height="100" as="geometry"/>
        </mxCell>
        <mxCell id="h2vfEFJqbL76fpFuShd4-16" value="Extended Limit API&lt;br&gt;(interim)" style="fontColor=#0066CC;verticalAlign=top;verticalLabelPosition=bottom;labelPosition=center;align=center;html=1;outlineConnect=0;fillColor=#CCCCCC;strokeColor=#6881B3;gradientColor=none;gradientDirection=north;strokeWidth=2;shape=mxgraph.networks.rack;" vertex="1" parent="h2vfEFJqbL76fpFuShd4-1">
          <mxGeometry x="710" y="585" width="50" height="100" as="geometry"/>
        </mxCell>
        <mxCell id="h2vfEFJqbL76fpFuShd4-17" value="Increase point" style="html=1;verticalAlign=bottom;endArrow=block;entryX=0;entryY=0.5;entryDx=0;entryDy=0;entryPerimeter=0;exitX=1;exitY=0.5;exitDx=0;exitDy=0;exitPerimeter=0;" edge="1" parent="h2vfEFJqbL76fpFuShd4-1" source="h2vfEFJqbL76fpFuShd4-16" target="h2vfEFJqbL76fpFuShd4-15">
          <mxGeometry width="80" relative="1" as="geometry">
            <mxPoint x="860" y="745" as="sourcePoint"/>
            <mxPoint x="940" y="745" as="targetPoint"/>
          </mxGeometry>
        </mxCell>
        <mxCell id="h2vfEFJqbL76fpFuShd4-18" value="donate" style="html=1;verticalAlign=bottom;endArrow=block;entryX=0;entryY=0.5;entryDx=0;entryDy=0;entryPerimeter=0;curved=1;exitX=1;exitY=0.5;exitDx=0;exitDy=0;exitPerimeter=0;" edge="1" parent="h2vfEFJqbL76fpFuShd4-1" source="h2vfEFJqbL76fpFuShd4-13" target="h2vfEFJqbL76fpFuShd4-16">
          <mxGeometry width="80" relative="1" as="geometry">
            <mxPoint x="430" y="465" as="sourcePoint"/>
            <mxPoint x="600" y="515" as="targetPoint"/>
            <Array as="points">
              <mxPoint x="590" y="525"/>
            </Array>
          </mxGeometry>
        </mxCell>
        <mxCell id="h2vfEFJqbL76fpFuShd4-19" value="ret extended levels" style="html=1;verticalAlign=bottom;endArrow=block;entryX=1;entryY=0.5;entryDx=0;entryDy=0;entryPerimeter=0;exitX=0;exitY=0.5;exitDx=0;exitDy=0;exitPerimeter=0;curved=1;" edge="1" parent="h2vfEFJqbL76fpFuShd4-1" source="h2vfEFJqbL76fpFuShd4-16" target="h2vfEFJqbL76fpFuShd4-13">
          <mxGeometry width="80" relative="1" as="geometry">
            <mxPoint x="550" y="645" as="sourcePoint"/>
            <mxPoint x="630" y="645" as="targetPoint"/>
            <Array as="points">
              <mxPoint x="540" y="595"/>
            </Array>
          </mxGeometry>
        </mxCell>
        <mxCell id="h2vfEFJqbL76fpFuShd4-28" value="TL;DR:ブロック寄付で整地レベル上限解放" style="text;html=1;align=center;verticalAlign=middle;resizable=0;points=[];autosize=1;" vertex="1" parent="h2vfEFJqbL76fpFuShd4-1">
          <mxGeometry x="60" y="255" width="250" height="20" as="geometry"/>
        </mxCell>
      </root>
    </mxGraphModel>
  </diagram>
  <diagram id="LSwT6LLLoQwnxkzz4rH_" name="TRACKER-7369">
    <mxGraphModel dx="1277" dy="816" grid="1" gridSize="10" guides="1" tooltips="1" connect="1" arrows="1" fold="1" page="1" pageScale="1" pageWidth="827" pageHeight="1169" math="0" shadow="0">
      <root>
        <mxCell id="7KLdcDYnsAhtnfTg8zIX-0"/>
        <mxCell id="7KLdcDYnsAhtnfTg8zIX-1" parent="7KLdcDYnsAhtnfTg8zIX-0"/>
        <mxCell id="udQly_OofBGP-yCt4uKZ-0" value="Arcadia (aka S1)" style="fontColor=#0066CC;verticalAlign=top;verticalLabelPosition=bottom;labelPosition=center;align=center;html=1;outlineConnect=0;fillColor=#CCCCCC;strokeColor=#6881B3;gradientColor=none;gradientDirection=north;strokeWidth=2;shape=mxgraph.networks.rack;" vertex="1" parent="7KLdcDYnsAhtnfTg8zIX-1">
          <mxGeometry x="30" y="270" width="50" height="100" as="geometry"/>
        </mxCell>
        <mxCell id="udQly_OofBGP-yCt4uKZ-1" value="Eden (aka S2)" style="fontColor=#0066CC;verticalAlign=top;verticalLabelPosition=bottom;labelPosition=center;align=center;html=1;outlineConnect=0;fillColor=#CCCCCC;strokeColor=#6881B3;gradientColor=none;gradientDirection=north;strokeWidth=2;shape=mxgraph.networks.rack;" vertex="1" parent="7KLdcDYnsAhtnfTg8zIX-1">
          <mxGeometry x="30" y="420" width="50" height="100" as="geometry"/>
        </mxCell>
        <mxCell id="udQly_OofBGP-yCt4uKZ-2" value="Valhalla (aka S3)" style="fontColor=#0066CC;verticalAlign=top;verticalLabelPosition=bottom;labelPosition=center;align=center;html=1;outlineConnect=0;fillColor=#CCCCCC;strokeColor=#6881B3;gradientColor=none;gradientDirection=north;strokeWidth=2;shape=mxgraph.networks.rack;" vertex="1" parent="7KLdcDYnsAhtnfTg8zIX-1">
          <mxGeometry x="30" y="580" width="50" height="100" as="geometry"/>
        </mxCell>
        <mxCell id="udQly_OofBGP-yCt4uKZ-3" value="Item Transaction API" style="fontColor=#0066CC;verticalAlign=top;verticalLabelPosition=bottom;labelPosition=center;align=center;html=1;outlineConnect=0;fillColor=#CCCCCC;strokeColor=#6881B3;gradientColor=none;gradientDirection=north;strokeWidth=2;shape=mxgraph.networks.rack;" vertex="1" parent="7KLdcDYnsAhtnfTg8zIX-1">
          <mxGeometry x="720" y="420" width="50" height="100" as="geometry"/>
        </mxCell>
        <mxCell id="udQly_OofBGP-yCt4uKZ-4" value="Minestack" style="fontColor=#0066CC;verticalAlign=top;verticalLabelPosition=bottom;labelPosition=center;align=center;html=1;outlineConnect=0;fillColor=#CCCCCC;strokeColor=#6881B3;gradientColor=none;gradientDirection=north;strokeWidth=2;shape=mxgraph.networks.storage;" vertex="1" parent="7KLdcDYnsAhtnfTg8zIX-1">
          <mxGeometry x="960" y="270" width="100" height="100" as="geometry"/>
        </mxCell>
        <mxCell id="udQly_OofBGP-yCt4uKZ-5" value="Transaction History" style="fontColor=#0066CC;verticalAlign=top;verticalLabelPosition=bottom;labelPosition=center;align=center;html=1;outlineConnect=0;fillColor=#CCCCCC;strokeColor=#6881B3;gradientColor=none;gradientDirection=north;strokeWidth=2;shape=mxgraph.networks.storage;" vertex="1" parent="7KLdcDYnsAhtnfTg8zIX-1">
          <mxGeometry x="950" y="450" width="100" height="100" as="geometry"/>
        </mxCell>
        <mxCell id="udQly_OofBGP-yCt4uKZ-6" value="commit" style="html=1;verticalAlign=bottom;endArrow=block;entryX=0;entryY=0.5;entryDx=0;entryDy=0;entryPerimeter=0;exitX=1;exitY=0.5;exitDx=0;exitDy=0;exitPerimeter=0;" edge="1" parent="7KLdcDYnsAhtnfTg8zIX-1" source="udQly_OofBGP-yCt4uKZ-3" target="udQly_OofBGP-yCt4uKZ-4">
          <mxGeometry x="-0.0226" y="7" width="80" relative="1" as="geometry">
            <mxPoint x="770" y="410" as="sourcePoint"/>
            <mxPoint x="850" y="410" as="targetPoint"/>
            <mxPoint as="offset"/>
          </mxGeometry>
        </mxCell>
        <mxCell id="udQly_OofBGP-yCt4uKZ-7" value="type=convert_point,from=supplier,&lt;br&gt;to=system,items=item" style="html=1;verticalAlign=bottom;endArrow=block;exitX=1;exitY=0.5;exitDx=0;exitDy=0;exitPerimeter=0;entryX=0;entryY=0.5;entryDx=0;entryDy=0;entryPerimeter=0;" edge="1" parent="7KLdcDYnsAhtnfTg8zIX-1" source="udQly_OofBGP-yCt4uKZ-3" target="udQly_OofBGP-yCt4uKZ-5">
          <mxGeometry x="0.0811" y="-44" width="80" relative="1" as="geometry">
            <mxPoint x="800" y="397" as="sourcePoint"/>
            <mxPoint x="880" y="397" as="targetPoint"/>
            <mxPoint as="offset"/>
          </mxGeometry>
        </mxCell>
        <mxCell id="udQly_OofBGP-yCt4uKZ-8" value="" style="endArrow=none;html=1;exitX=1;exitY=0.5;exitDx=0;exitDy=0;exitPerimeter=0;entryX=0;entryY=0.5;entryDx=0;entryDy=0;entryPerimeter=0;" edge="1" parent="7KLdcDYnsAhtnfTg8zIX-1" source="udQly_OofBGP-yCt4uKZ-0" target="udQly_OofBGP-yCt4uKZ-11">
          <mxGeometry width="50" height="50" relative="1" as="geometry">
            <mxPoint x="90" y="330" as="sourcePoint"/>
            <mxPoint x="360" y="469.2857142857142" as="targetPoint"/>
          </mxGeometry>
        </mxCell>
        <mxCell id="udQly_OofBGP-yCt4uKZ-9" value="" style="endArrow=none;html=1;exitX=1;exitY=0.5;exitDx=0;exitDy=0;exitPerimeter=0;entryX=0;entryY=0.5;entryDx=0;entryDy=0;entryPerimeter=0;" edge="1" parent="7KLdcDYnsAhtnfTg8zIX-1" source="udQly_OofBGP-yCt4uKZ-1" target="udQly_OofBGP-yCt4uKZ-11">
          <mxGeometry width="50" height="50" relative="1" as="geometry">
            <mxPoint x="90" y="480" as="sourcePoint"/>
            <mxPoint x="360" y="469.2857142857142" as="targetPoint"/>
          </mxGeometry>
        </mxCell>
        <mxCell id="udQly_OofBGP-yCt4uKZ-10" value="" style="endArrow=none;html=1;exitX=1;exitY=0.5;exitDx=0;exitDy=0;exitPerimeter=0;entryX=0;entryY=0.5;entryDx=0;entryDy=0;entryPerimeter=0;" edge="1" parent="7KLdcDYnsAhtnfTg8zIX-1" source="udQly_OofBGP-yCt4uKZ-2" target="udQly_OofBGP-yCt4uKZ-11">
          <mxGeometry width="50" height="50" relative="1" as="geometry">
            <mxPoint x="90" y="640" as="sourcePoint"/>
            <mxPoint x="360" y="469.2857142857142" as="targetPoint"/>
          </mxGeometry>
        </mxCell>
        <mxCell id="udQly_OofBGP-yCt4uKZ-11" value="SeichiAssist" style="fontColor=#0066CC;verticalAlign=top;verticalLabelPosition=bottom;labelPosition=center;align=center;html=1;outlineConnect=0;fillColor=#CCCCCC;strokeColor=#6881B3;gradientColor=none;gradientDirection=north;strokeWidth=2;shape=mxgraph.networks.mainframe;" vertex="1" parent="7KLdcDYnsAhtnfTg8zIX-1">
          <mxGeometry x="360" y="420" width="80" height="100" as="geometry"/>
        </mxCell>
        <mxCell id="udQly_OofBGP-yCt4uKZ-12" value="convert to point" style="html=1;verticalAlign=bottom;endArrow=block;entryX=0;entryY=0.4;entryDx=0;entryDy=0;entryPerimeter=0;" edge="1" parent="7KLdcDYnsAhtnfTg8zIX-1" target="udQly_OofBGP-yCt4uKZ-3">
          <mxGeometry width="80" relative="1" as="geometry">
            <mxPoint x="440" y="460" as="sourcePoint"/>
            <mxPoint x="710" y="460" as="targetPoint"/>
          </mxGeometry>
        </mxCell>
        <mxCell id="udQly_OofBGP-yCt4uKZ-13" value="SPTs Record File" style="fontColor=#0066CC;verticalAlign=top;verticalLabelPosition=bottom;labelPosition=center;align=center;html=1;outlineConnect=0;fillColor=#CCCCCC;strokeColor=#6881B3;gradientColor=none;gradientDirection=north;strokeWidth=2;shape=mxgraph.networks.storage;" vertex="1" parent="7KLdcDYnsAhtnfTg8zIX-1">
          <mxGeometry x="950" y="580" width="100" height="100" as="geometry"/>
        </mxCell>
        <mxCell id="udQly_OofBGP-yCt4uKZ-14" value="SPT API&lt;br&gt;(interim)" style="fontColor=#0066CC;verticalAlign=top;verticalLabelPosition=bottom;labelPosition=center;align=center;html=1;outlineConnect=0;fillColor=#CCCCCC;strokeColor=#6881B3;gradientColor=none;gradientDirection=north;strokeWidth=2;shape=mxgraph.networks.rack;" vertex="1" parent="7KLdcDYnsAhtnfTg8zIX-1">
          <mxGeometry x="720" y="580" width="50" height="100" as="geometry"/>
        </mxCell>
        <mxCell id="udQly_OofBGP-yCt4uKZ-15" value="(In|De)crease point" style="html=1;verticalAlign=bottom;endArrow=block;entryX=0;entryY=0.5;entryDx=0;entryDy=0;entryPerimeter=0;exitX=1;exitY=0.5;exitDx=0;exitDy=0;exitPerimeter=0;" edge="1" parent="7KLdcDYnsAhtnfTg8zIX-1" source="udQly_OofBGP-yCt4uKZ-14" target="udQly_OofBGP-yCt4uKZ-13">
          <mxGeometry width="80" relative="1" as="geometry">
            <mxPoint x="870" y="740" as="sourcePoint"/>
            <mxPoint x="950" y="740" as="targetPoint"/>
          </mxGeometry>
        </mxCell>
        <mxCell id="udQly_OofBGP-yCt4uKZ-16" value="convert to point" style="html=1;verticalAlign=bottom;endArrow=block;entryX=0;entryY=0.5;entryDx=0;entryDy=0;entryPerimeter=0;curved=1;exitX=1;exitY=0.5;exitDx=0;exitDy=0;exitPerimeter=0;" edge="1" parent="7KLdcDYnsAhtnfTg8zIX-1" source="udQly_OofBGP-yCt4uKZ-11" target="udQly_OofBGP-yCt4uKZ-14">
          <mxGeometry width="80" relative="1" as="geometry">
            <mxPoint x="440" y="460" as="sourcePoint"/>
            <mxPoint x="610" y="510" as="targetPoint"/>
            <Array as="points">
              <mxPoint x="600" y="520"/>
            </Array>
          </mxGeometry>
        </mxCell>
        <mxCell id="udQly_OofBGP-yCt4uKZ-17" value="ret points" style="html=1;verticalAlign=bottom;endArrow=block;entryX=1;entryY=0.5;entryDx=0;entryDy=0;entryPerimeter=0;exitX=0;exitY=0.5;exitDx=0;exitDy=0;exitPerimeter=0;curved=1;" edge="1" parent="7KLdcDYnsAhtnfTg8zIX-1" source="udQly_OofBGP-yCt4uKZ-14" target="udQly_OofBGP-yCt4uKZ-11">
          <mxGeometry width="80" relative="1" as="geometry">
            <mxPoint x="560" y="640" as="sourcePoint"/>
            <mxPoint x="640" y="640" as="targetPoint"/>
            <Array as="points">
              <mxPoint x="550" y="590"/>
            </Array>
          </mxGeometry>
        </mxCell>
        <mxCell id="udQly_OofBGP-yCt4uKZ-26" value="TL;DR: ブロックから得られるゲーム内通貨&lt;br&gt;(ここでは仮にSPTとする)で景品交換" style="text;html=1;align=center;verticalAlign=middle;resizable=0;points=[];autosize=1;" vertex="1" parent="7KLdcDYnsAhtnfTg8zIX-1">
          <mxGeometry x="35" y="238" width="250" height="30" as="geometry"/>
        </mxCell>
      </root>
    </mxGraphModel>
  </diagram>
  <diagram id="OqWJCXO8_pMfJjHppaxo" name="TRACKER-7371">
    <mxGraphModel dx="1277" dy="816" grid="1" gridSize="10" guides="1" tooltips="1" connect="1" arrows="1" fold="1" page="1" pageScale="1" pageWidth="827" pageHeight="1169" math="0" shadow="0">
      <root>
        <mxCell id="KtDQxME6dO20WelIIQvA-0"/>
        <mxCell id="KtDQxME6dO20WelIIQvA-1" parent="KtDQxME6dO20WelIIQvA-0"/>
        <mxCell id="myAFj9LgjS7igO9x5Gbc-0" value="Arcadia (aka S1)" style="fontColor=#0066CC;verticalAlign=top;verticalLabelPosition=bottom;labelPosition=center;align=center;html=1;outlineConnect=0;fillColor=#CCCCCC;strokeColor=#6881B3;gradientColor=none;gradientDirection=north;strokeWidth=2;shape=mxgraph.networks.rack;" vertex="1" parent="KtDQxME6dO20WelIIQvA-1">
          <mxGeometry x="30" y="270" width="50" height="100" as="geometry"/>
        </mxCell>
        <mxCell id="myAFj9LgjS7igO9x5Gbc-1" value="Eden (aka S2)" style="fontColor=#0066CC;verticalAlign=top;verticalLabelPosition=bottom;labelPosition=center;align=center;html=1;outlineConnect=0;fillColor=#CCCCCC;strokeColor=#6881B3;gradientColor=none;gradientDirection=north;strokeWidth=2;shape=mxgraph.networks.rack;" vertex="1" parent="KtDQxME6dO20WelIIQvA-1">
          <mxGeometry x="30" y="420" width="50" height="100" as="geometry"/>
        </mxCell>
        <mxCell id="myAFj9LgjS7igO9x5Gbc-2" value="Valhalla (aka S3)" style="fontColor=#0066CC;verticalAlign=top;verticalLabelPosition=bottom;labelPosition=center;align=center;html=1;outlineConnect=0;fillColor=#CCCCCC;strokeColor=#6881B3;gradientColor=none;gradientDirection=north;strokeWidth=2;shape=mxgraph.networks.rack;" vertex="1" parent="KtDQxME6dO20WelIIQvA-1">
          <mxGeometry x="30" y="580" width="50" height="100" as="geometry"/>
        </mxCell>
        <mxCell id="myAFj9LgjS7igO9x5Gbc-3" value="Item Transaction API" style="fontColor=#0066CC;verticalAlign=top;verticalLabelPosition=bottom;labelPosition=center;align=center;html=1;outlineConnect=0;fillColor=#CCCCCC;strokeColor=#6881B3;gradientColor=none;gradientDirection=north;strokeWidth=2;shape=mxgraph.networks.rack;" vertex="1" parent="KtDQxME6dO20WelIIQvA-1">
          <mxGeometry x="720" y="420" width="50" height="100" as="geometry"/>
        </mxCell>
        <mxCell id="myAFj9LgjS7igO9x5Gbc-4" value="Minestack" style="fontColor=#0066CC;verticalAlign=top;verticalLabelPosition=bottom;labelPosition=center;align=center;html=1;outlineConnect=0;fillColor=#CCCCCC;strokeColor=#6881B3;gradientColor=none;gradientDirection=north;strokeWidth=2;shape=mxgraph.networks.storage;" vertex="1" parent="KtDQxME6dO20WelIIQvA-1">
          <mxGeometry x="960" y="270" width="100" height="100" as="geometry"/>
        </mxCell>
        <mxCell id="myAFj9LgjS7igO9x5Gbc-5" value="Transaction History" style="fontColor=#0066CC;verticalAlign=top;verticalLabelPosition=bottom;labelPosition=center;align=center;html=1;outlineConnect=0;fillColor=#CCCCCC;strokeColor=#6881B3;gradientColor=none;gradientDirection=north;strokeWidth=2;shape=mxgraph.networks.storage;" vertex="1" parent="KtDQxME6dO20WelIIQvA-1">
          <mxGeometry x="950" y="450" width="100" height="100" as="geometry"/>
        </mxCell>
        <mxCell id="myAFj9LgjS7igO9x5Gbc-6" value="commit" style="html=1;verticalAlign=bottom;endArrow=block;entryX=0;entryY=0.5;entryDx=0;entryDy=0;entryPerimeter=0;exitX=1;exitY=0.5;exitDx=0;exitDy=0;exitPerimeter=0;" edge="1" parent="KtDQxME6dO20WelIIQvA-1" source="myAFj9LgjS7igO9x5Gbc-3" target="myAFj9LgjS7igO9x5Gbc-4">
          <mxGeometry x="-0.0226" y="7" width="80" relative="1" as="geometry">
            <mxPoint x="770" y="410" as="sourcePoint"/>
            <mxPoint x="850" y="410" as="targetPoint"/>
            <mxPoint as="offset"/>
          </mxGeometry>
        </mxCell>
        <mxCell id="myAFj9LgjS7igO9x5Gbc-7" value="type=convert_point,from=supplier,&lt;br&gt;to=system,items=item" style="html=1;verticalAlign=bottom;endArrow=block;exitX=1;exitY=0.5;exitDx=0;exitDy=0;exitPerimeter=0;entryX=0;entryY=0.5;entryDx=0;entryDy=0;entryPerimeter=0;" edge="1" parent="KtDQxME6dO20WelIIQvA-1" source="myAFj9LgjS7igO9x5Gbc-3" target="myAFj9LgjS7igO9x5Gbc-5">
          <mxGeometry x="0.0811" y="-44" width="80" relative="1" as="geometry">
            <mxPoint x="800" y="397" as="sourcePoint"/>
            <mxPoint x="880" y="397" as="targetPoint"/>
            <mxPoint as="offset"/>
          </mxGeometry>
        </mxCell>
        <mxCell id="myAFj9LgjS7igO9x5Gbc-8" value="" style="endArrow=none;html=1;exitX=1;exitY=0.5;exitDx=0;exitDy=0;exitPerimeter=0;entryX=0;entryY=0.5;entryDx=0;entryDy=0;entryPerimeter=0;" edge="1" parent="KtDQxME6dO20WelIIQvA-1" source="myAFj9LgjS7igO9x5Gbc-0" target="myAFj9LgjS7igO9x5Gbc-11">
          <mxGeometry width="50" height="50" relative="1" as="geometry">
            <mxPoint x="90" y="330" as="sourcePoint"/>
            <mxPoint x="360" y="469.2857142857142" as="targetPoint"/>
          </mxGeometry>
        </mxCell>
        <mxCell id="myAFj9LgjS7igO9x5Gbc-9" value="" style="endArrow=none;html=1;exitX=1;exitY=0.5;exitDx=0;exitDy=0;exitPerimeter=0;entryX=0;entryY=0.5;entryDx=0;entryDy=0;entryPerimeter=0;" edge="1" parent="KtDQxME6dO20WelIIQvA-1" source="myAFj9LgjS7igO9x5Gbc-1" target="myAFj9LgjS7igO9x5Gbc-11">
          <mxGeometry width="50" height="50" relative="1" as="geometry">
            <mxPoint x="90" y="480" as="sourcePoint"/>
            <mxPoint x="360" y="469.2857142857142" as="targetPoint"/>
          </mxGeometry>
        </mxCell>
        <mxCell id="myAFj9LgjS7igO9x5Gbc-10" value="" style="endArrow=none;html=1;exitX=1;exitY=0.5;exitDx=0;exitDy=0;exitPerimeter=0;entryX=0;entryY=0.5;entryDx=0;entryDy=0;entryPerimeter=0;" edge="1" parent="KtDQxME6dO20WelIIQvA-1" source="myAFj9LgjS7igO9x5Gbc-2" target="myAFj9LgjS7igO9x5Gbc-11">
          <mxGeometry width="50" height="50" relative="1" as="geometry">
            <mxPoint x="90" y="640" as="sourcePoint"/>
            <mxPoint x="360" y="469.2857142857142" as="targetPoint"/>
          </mxGeometry>
        </mxCell>
        <mxCell id="myAFj9LgjS7igO9x5Gbc-11" value="SeichiAssist" style="fontColor=#0066CC;verticalAlign=top;verticalLabelPosition=bottom;labelPosition=center;align=center;html=1;outlineConnect=0;fillColor=#CCCCCC;strokeColor=#6881B3;gradientColor=none;gradientDirection=north;strokeWidth=2;shape=mxgraph.networks.mainframe;" vertex="1" parent="KtDQxME6dO20WelIIQvA-1">
          <mxGeometry x="360" y="420" width="80" height="100" as="geometry"/>
        </mxCell>
        <mxCell id="myAFj9LgjS7igO9x5Gbc-12" value="convert to point" style="html=1;verticalAlign=bottom;endArrow=block;entryX=0;entryY=0.4;entryDx=0;entryDy=0;entryPerimeter=0;" edge="1" parent="KtDQxME6dO20WelIIQvA-1" target="myAFj9LgjS7igO9x5Gbc-3">
          <mxGeometry width="80" relative="1" as="geometry">
            <mxPoint x="440" y="460" as="sourcePoint"/>
            <mxPoint x="710" y="460" as="targetPoint"/>
          </mxGeometry>
        </mxCell>
        <mxCell id="myAFj9LgjS7igO9x5Gbc-13" value="SPTs Record File" style="fontColor=#0066CC;verticalAlign=top;verticalLabelPosition=bottom;labelPosition=center;align=center;html=1;outlineConnect=0;fillColor=#CCCCCC;strokeColor=#6881B3;gradientColor=none;gradientDirection=north;strokeWidth=2;shape=mxgraph.networks.storage;" vertex="1" parent="KtDQxME6dO20WelIIQvA-1">
          <mxGeometry x="950" y="580" width="100" height="100" as="geometry"/>
        </mxCell>
        <mxCell id="myAFj9LgjS7igO9x5Gbc-14" value="SPT API&lt;br&gt;(interim)" style="fontColor=#0066CC;verticalAlign=top;verticalLabelPosition=bottom;labelPosition=center;align=center;html=1;outlineConnect=0;fillColor=#CCCCCC;strokeColor=#6881B3;gradientColor=none;gradientDirection=north;strokeWidth=2;shape=mxgraph.networks.rack;" vertex="1" parent="KtDQxME6dO20WelIIQvA-1">
          <mxGeometry x="720" y="580" width="50" height="100" as="geometry"/>
        </mxCell>
        <mxCell id="myAFj9LgjS7igO9x5Gbc-15" value="(In|De)crease point" style="html=1;verticalAlign=bottom;endArrow=block;entryX=0;entryY=0.5;entryDx=0;entryDy=0;entryPerimeter=0;exitX=1;exitY=0.5;exitDx=0;exitDy=0;exitPerimeter=0;" edge="1" parent="KtDQxME6dO20WelIIQvA-1" source="myAFj9LgjS7igO9x5Gbc-14" target="myAFj9LgjS7igO9x5Gbc-13">
          <mxGeometry width="80" relative="1" as="geometry">
            <mxPoint x="870" y="740" as="sourcePoint"/>
            <mxPoint x="950" y="740" as="targetPoint"/>
          </mxGeometry>
        </mxCell>
        <mxCell id="myAFj9LgjS7igO9x5Gbc-16" value="convert to point" style="html=1;verticalAlign=bottom;endArrow=block;entryX=0;entryY=0.5;entryDx=0;entryDy=0;entryPerimeter=0;curved=1;exitX=1;exitY=0.5;exitDx=0;exitDy=0;exitPerimeter=0;" edge="1" parent="KtDQxME6dO20WelIIQvA-1" source="myAFj9LgjS7igO9x5Gbc-11" target="myAFj9LgjS7igO9x5Gbc-14">
          <mxGeometry width="80" relative="1" as="geometry">
            <mxPoint x="440" y="460" as="sourcePoint"/>
            <mxPoint x="610" y="510" as="targetPoint"/>
            <Array as="points">
              <mxPoint x="600" y="520"/>
            </Array>
          </mxGeometry>
        </mxCell>
        <mxCell id="myAFj9LgjS7igO9x5Gbc-17" value="ret points" style="html=1;verticalAlign=bottom;endArrow=block;entryX=1;entryY=0.5;entryDx=0;entryDy=0;entryPerimeter=0;exitX=0;exitY=0.5;exitDx=0;exitDy=0;exitPerimeter=0;curved=1;" edge="1" parent="KtDQxME6dO20WelIIQvA-1" source="myAFj9LgjS7igO9x5Gbc-14" target="myAFj9LgjS7igO9x5Gbc-11">
          <mxGeometry width="80" relative="1" as="geometry">
            <mxPoint x="560" y="640" as="sourcePoint"/>
            <mxPoint x="640" y="640" as="targetPoint"/>
            <Array as="points">
              <mxPoint x="550" y="590"/>
            </Array>
          </mxGeometry>
        </mxCell>
        <mxCell id="myAFj9LgjS7igO9x5Gbc-18" value="TL;DR: ブロックから得られるポイント&lt;br&gt;(ここでは仮にSPTとする)とギルド(納品、&lt;br&gt;内部共有倉庫、ランキング)" style="text;html=1;align=center;verticalAlign=middle;resizable=0;points=[];autosize=1;" vertex="1" parent="KtDQxME6dO20WelIIQvA-1">
          <mxGeometry x="40" y="228" width="240" height="50" as="geometry"/>
        </mxCell>
        <mxCell id="myAFj9LgjS7igO9x5Gbc-19" value="Guild API&lt;br&gt;(interim)" style="fontColor=#0066CC;verticalAlign=top;verticalLabelPosition=bottom;labelPosition=center;align=center;html=1;outlineConnect=0;fillColor=#CCCCCC;strokeColor=#6881B3;gradientColor=none;gradientDirection=north;strokeWidth=2;shape=mxgraph.networks.rack;" vertex="1" parent="KtDQxME6dO20WelIIQvA-1">
          <mxGeometry x="720" y="780" width="50" height="100" as="geometry"/>
        </mxCell>
        <mxCell id="myAFj9LgjS7igO9x5Gbc-20" value="(In|De)crease point" style="html=1;verticalAlign=bottom;endArrow=block;entryX=0;entryY=0.5;entryDx=0;entryDy=0;entryPerimeter=0;exitX=1;exitY=0.5;exitDx=0;exitDy=0;exitPerimeter=0;" edge="1" source="myAFj9LgjS7igO9x5Gbc-19" target="myAFj9LgjS7igO9x5Gbc-21" parent="KtDQxME6dO20WelIIQvA-1">
          <mxGeometry width="80" relative="1" as="geometry">
            <mxPoint x="870" y="940" as="sourcePoint"/>
            <mxPoint x="950" y="940" as="targetPoint"/>
          </mxGeometry>
        </mxCell>
        <mxCell id="myAFj9LgjS7igO9x5Gbc-21" value="Guild Record File" style="fontColor=#0066CC;verticalAlign=top;verticalLabelPosition=bottom;labelPosition=center;align=center;html=1;outlineConnect=0;fillColor=#CCCCCC;strokeColor=#6881B3;gradientColor=none;gradientDirection=north;strokeWidth=2;shape=mxgraph.networks.storage;" vertex="1" parent="KtDQxME6dO20WelIIQvA-1">
          <mxGeometry x="950" y="780" width="100" height="100" as="geometry"/>
        </mxCell>
        <mxCell id="myAFj9LgjS7igO9x5Gbc-22" value="write" style="html=1;verticalAlign=bottom;endArrow=block;curved=1;exitX=1;exitY=0.95;exitDx=0;exitDy=0;exitPerimeter=0;" edge="1" parent="KtDQxME6dO20WelIIQvA-1" source="myAFj9LgjS7igO9x5Gbc-11">
          <mxGeometry width="80" relative="1" as="geometry">
            <mxPoint x="440" y="680" as="sourcePoint"/>
            <mxPoint x="720" y="830" as="targetPoint"/>
            <Array as="points">
              <mxPoint x="640" y="690"/>
            </Array>
          </mxGeometry>
        </mxCell>
        <mxCell id="myAFj9LgjS7igO9x5Gbc-23" value="read" style="html=1;verticalAlign=bottom;endArrow=block;entryX=1;entryY=0.95;entryDx=0;entryDy=0;entryPerimeter=0;curved=1;" edge="1" parent="KtDQxME6dO20WelIIQvA-1" target="myAFj9LgjS7igO9x5Gbc-11">
          <mxGeometry width="80" relative="1" as="geometry">
            <mxPoint x="720" y="830" as="sourcePoint"/>
            <mxPoint x="440" y="680" as="targetPoint"/>
            <Array as="points">
              <mxPoint x="550" y="800"/>
            </Array>
          </mxGeometry>
        </mxCell>
      </root>
    </mxGraphModel>
  </diagram>
</mxfile>
